<svg width="24" height="24" viewBox="0 0 24 24" fill="none" xmlns="http://www.w3.org/2000/svg">
<path d="M15.6347 8.98981C15.5583 8.99227 15.4823 8.97888 15.4113 8.9505C15.3403 8.92211 15.276 8.87933 15.2224 8.82487C15.1672 8.7701 15.1233 8.70495 15.0934 8.63316C15.0635 8.56137 15.0481 8.48437 15.0481 8.4066C15.0481 8.32884 15.0635 8.25184 15.0934 8.18005C15.1233 8.10826 15.1672 8.04311 15.2224 7.98834L19.6996 3.51117C19.7543 3.45595 19.8195 3.41213 19.8913 3.38222C19.9631 3.35231 20.0401 3.33691 20.1178 3.33691C20.1956 3.33691 20.2726 3.35231 20.3444 3.38222C20.4162 3.41213 20.4813 3.45595 20.5361 3.51117C20.6448 3.62328 20.7056 3.77329 20.7056 3.92943C20.7056 4.08558 20.6448 4.23559 20.5361 4.34769L16.0471 8.82487C15.9939 8.87992 15.9297 8.92309 15.8586 8.95152C15.7875 8.97995 15.7112 8.993 15.6347 8.98981Z" fill="white"/>
<path d="M3.9705 20.6539C3.8941 20.6563 3.81802 20.6429 3.74705 20.6146C3.67608 20.5862 3.61175 20.5434 3.55812 20.4889C3.50291 20.4342 3.45909 20.369 3.42919 20.2972C3.39928 20.2254 3.38388 20.1484 3.38388 20.0707C3.38388 19.9929 3.39928 19.9159 3.42919 19.8441C3.45909 19.7723 3.50291 19.7072 3.55812 19.6524L8.0353 15.1752C8.09007 15.12 8.15523 15.0762 8.22702 15.0463C8.2988 15.0164 8.37579 15.001 8.45356 15.001C8.53133 15.001 8.60833 15.0164 8.68012 15.0463C8.7519 15.0762 8.81707 15.12 8.87183 15.1752C8.98052 15.2873 9.04129 15.4374 9.04129 15.5935C9.04129 15.7496 8.98052 15.8997 8.87183 16.0118L4.39466 20.4889C4.33843 20.5432 4.27196 20.5857 4.19915 20.614C4.12633 20.6423 4.04861 20.6559 3.9705 20.6539Z" fill="white"/>
<path d="M20.1119 20.654C20.0355 20.6564 19.9594 20.6431 19.8885 20.6147C19.8175 20.5863 19.7532 20.5435 19.6996 20.489L15.2224 16.0119C15.1672 15.9571 15.1233 15.892 15.0934 15.8202C15.0635 15.7484 15.0481 15.6714 15.0481 15.5936C15.0481 15.5158 15.0635 15.4388 15.0934 15.3671C15.1233 15.2953 15.1672 15.2301 15.2224 15.1753C15.2753 15.119 15.3392 15.0741 15.4101 15.0434C15.481 15.0127 15.5575 14.9968 15.6347 14.9968C15.712 14.9968 15.7885 15.0127 15.8594 15.0434C15.9304 15.0741 15.9942 15.119 16.0471 15.1753L20.5361 19.6525C20.6448 19.7646 20.7056 19.9146 20.7056 20.0708C20.7056 20.2269 20.6448 20.3769 20.5361 20.489C20.4798 20.5433 20.4134 20.5858 20.3406 20.6141C20.2677 20.6424 20.19 20.656 20.1119 20.654Z" fill="white"/>
<path d="M8.44768 8.98978C8.37128 8.99224 8.2952 8.97885 8.22423 8.95047C8.15326 8.92208 8.08893 8.8793 8.0353 8.82484L3.55812 4.34766C3.44719 4.23673 3.38489 4.08628 3.38489 3.9294C3.38489 3.77252 3.44719 3.62207 3.55812 3.51114C3.66905 3.40021 3.81952 3.33789 3.9764 3.33789C4.13328 3.33789 4.28373 3.40021 4.39466 3.51114L8.87183 7.98831C8.98052 8.10042 9.04129 8.25043 9.04129 8.40657C9.04129 8.56272 8.98052 8.71273 8.87183 8.82484C8.8156 8.87908 8.74914 8.9216 8.67632 8.94992C8.6035 8.97824 8.52578 8.99179 8.44768 8.98978Z" fill="white"/>
<path d="M12.0412 7.50515C11.885 7.50515 11.7351 7.44309 11.6247 7.33261C11.5142 7.22213 11.4521 7.07229 11.4521 6.91605V0.589102C11.4521 0.432862 11.5142 0.283021 11.6247 0.172543C11.7351 0.0620655 11.885 0 12.0412 0C12.1975 0 12.3473 0.0620655 12.4578 0.172543C12.5682 0.283021 12.6303 0.432862 12.6303 0.589102V6.91605C12.6303 7.07229 12.5682 7.22213 12.4578 7.33261C12.3473 7.44309 12.1975 7.50515 12.0412 7.50515Z" fill="white"/>
<path d="M12.0412 24C11.885 24 11.7351 23.938 11.6247 23.8275C11.5142 23.717 11.4521 23.5672 11.4521 23.4109V17.084C11.4521 16.9277 11.5142 16.7779 11.6247 16.6674C11.7351 16.5569 11.885 16.4949 12.0412 16.4949C12.1975 16.4949 12.3473 16.5569 12.4578 16.6674C12.5682 16.7779 12.6303 16.9277 12.6303 17.084V23.4109C12.6303 23.5672 12.5682 23.717 12.4578 23.8275C12.3473 23.938 12.1975 24 12.0412 24Z" fill="white"/>
<path d="M23.4109 12.5832H17.0839C16.9277 12.5832 16.7779 12.5212 16.6674 12.4107C16.5569 12.3002 16.4948 12.1504 16.4948 11.9941C16.4948 11.8379 16.5569 11.6881 16.6674 11.5776C16.7779 11.4671 16.9277 11.405 17.0839 11.405H23.4109C23.5671 11.405 23.717 11.4671 23.8274 11.5776C23.9379 11.6881 24 11.8379 24 11.9941C24 12.1504 23.9379 12.3002 23.8274 12.4107C23.717 12.5212 23.5671 12.5832 23.4109 12.5832Z" fill="white"/>
<path d="M6.91605 12.5832H0.589102C0.432862 12.5832 0.283012 12.5212 0.172534 12.4107C0.0620565 12.3002 0 12.1504 0 11.9941C0 11.8379 0.0620565 11.6881 0.172534 11.5776C0.283012 11.4671 0.432862 11.405 0.589102 11.405H6.91605C7.07229 11.405 7.22212 11.4671 7.3326 11.5776C7.44308 11.6881 7.50515 11.8379 7.50515 11.9941C7.50515 12.1504 7.44308 12.3002 7.3326 12.4107C7.22212 12.5212 7.07229 12.5832 6.91605 12.5832Z" fill="white"/>
</svg>
