<svg width="53" height="9" viewBox="0 0 53 9" fill="none" xmlns="http://www.w3.org/2000/svg">
<path d="M35.8678 2.07845H0.658608C0.483934 2.07845 0.316424 2.00906 0.192911 1.88554C0.0693984 1.76203 0 1.59451 0 1.41984C0 1.24516 0.0693984 1.07764 0.192911 0.954132C0.316424 0.830619 0.483934 0.76123 0.658608 0.76123H35.8678C36.0425 0.76123 36.21 0.830619 36.3335 0.954132C36.457 1.07764 36.5264 1.24516 36.5264 1.41984C36.523 1.59346 36.4525 1.75902 36.3297 1.88181C36.207 2.0046 36.0414 2.07507 35.8678 2.07845Z" fill="white"/>
<path d="M47.0642 2.07845H41.5318C41.3572 2.07845 41.1897 2.00906 41.0661 1.88554C40.9426 1.76203 40.8732 1.59451 40.8732 1.41984C40.8732 1.24516 40.9426 1.07764 41.0661 0.954132C41.1897 0.830619 41.3572 0.76123 41.5318 0.76123H47.0642C47.2388 0.76123 47.4063 0.830619 47.5299 0.954132C47.6534 1.07764 47.7228 1.24516 47.7228 1.41984C47.7228 1.59451 47.6534 1.76203 47.5299 1.88554C47.4063 2.00906 47.2388 2.07845 47.0642 2.07845Z" fill="white"/>
<path d="M40.1487 8.67757H4.93955C4.76488 8.67757 4.59737 8.60818 4.47386 8.48467C4.35034 8.36115 4.28094 8.19363 4.28094 8.01896C4.28094 7.84429 4.35034 7.67677 4.47386 7.55325C4.59737 7.42974 4.76488 7.36035 4.93955 7.36035H40.1487C40.3234 7.36035 40.4909 7.42974 40.6144 7.55325C40.7379 7.67677 40.8073 7.84429 40.8073 8.01896C40.804 8.19258 40.7335 8.35815 40.6107 8.48094C40.4879 8.60373 40.3223 8.67419 40.1487 8.67757Z" fill="white"/>
<path d="M51.3451 8.67757H45.8128C45.6381 8.67757 45.4706 8.60818 45.3471 8.48467C45.2236 8.36115 45.1542 8.19363 45.1542 8.01896C45.1542 7.84429 45.2236 7.67677 45.3471 7.55325C45.4706 7.42974 45.6381 7.36035 45.8128 7.36035H51.3451C51.5198 7.36035 51.6873 7.42974 51.8108 7.55325C51.9343 7.67677 52.0037 7.84429 52.0037 8.01896C52.0037 8.19363 51.9343 8.36115 51.8108 8.48467C51.6873 8.60818 51.5198 8.67757 51.3451 8.67757Z" fill="white"/>
</svg>
