<svg width="508" height="393" viewBox="0 0 508 393" fill="none" xmlns="http://www.w3.org/2000/svg">
<g style="mix-blend-mode:multiply" opacity="0.45">
<path d="M6.9956 337.233C6.974 337.255 6.948 337.272 6.91955 337.284C6.89109 337.296 6.8606 337.302 6.82974 337.302C6.79888 337.302 6.76838 337.296 6.73993 337.284C6.71148 337.272 6.68548 337.255 6.66388 337.233C6.64184 337.211 6.62446 337.185 6.6125 337.157C6.60055 337.128 6.5943 337.098 6.5943 337.067C6.5943 337.036 6.60055 337.006 6.6125 336.978C6.62446 336.949 6.64184 336.923 6.66388 336.902L19.9197 296.491C19.9274 296.455 19.9423 296.422 19.9634 296.393C19.9845 296.363 20.0117 296.339 20.0427 296.32C20.0738 296.301 20.1079 296.289 20.1438 296.285C20.1797 296.28 20.2166 296.282 20.2514 296.292C20.2917 296.344 20.3133 296.408 20.3133 296.474C20.3133 296.54 20.2917 296.604 20.2514 296.656L6.9956 337.067V337.233Z" fill="#DBDBDB"/>
</g>
<g style="mix-blend-mode:multiply" opacity="0.35">
<path d="M203.613 48.7658C203.569 48.7957 203.517 48.8116 203.463 48.8116C203.41 48.8116 203.359 48.7957 203.315 48.7658L186.745 40.333C186.718 40.2942 186.703 40.2481 186.703 40.2008C186.703 40.1535 186.718 40.1073 186.745 40.0685C186.745 40.0685 186.745 39.9031 187.01 40.0685L203.58 48.5013C203.612 48.5366 203.632 48.581 203.638 48.6283C203.644 48.6757 203.635 48.7237 203.613 48.7658Z" fill="#DBDBDB"/>
</g>
<g style="mix-blend-mode:multiply" opacity="0.42">
<path d="M94.6829 201.217L81.427 208.327C81.38 208.365 81.3214 208.385 81.2612 208.385C81.2009 208.385 81.1427 208.365 81.0957 208.327C81.0737 208.305 81.0559 208.28 81.0439 208.251C81.032 208.223 81.0261 208.192 81.0261 208.162C81.0261 208.131 81.032 208.1 81.0439 208.072C81.0559 208.044 81.0737 208.018 81.0957 207.996L94.3515 200.886C94.3731 200.864 94.3987 200.847 94.4272 200.835C94.4556 200.823 94.4861 200.817 94.517 200.817C94.5479 200.817 94.5784 200.823 94.6068 200.835C94.6353 200.847 94.6613 200.864 94.6829 200.886C94.7102 200.904 94.7325 200.929 94.748 200.958C94.7635 200.987 94.7719 201.019 94.7719 201.052C94.7719 201.084 94.7635 201.117 94.748 201.145C94.7325 201.174 94.7102 201.199 94.6829 201.217Z" fill="#DBDBDB"/>
</g>
<g style="mix-blend-mode:multiply" opacity="0.35">
<path d="M155.693 138.418L94.5834 201.25V201.085L155.66 138.252H155.858C155.848 138.292 155.827 138.328 155.798 138.357C155.769 138.386 155.733 138.407 155.693 138.418Z" fill="#DBDBDB"/>
</g>
<g style="mix-blend-mode:multiply" opacity="0.47">
<path d="M356.883 367.524L349.891 268.315C349.921 268.298 349.956 268.289 349.991 268.289C350.025 268.289 350.059 268.298 350.09 268.315L357.082 367.524C357.082 367.524 356.917 367.524 356.883 367.524Z" fill="#DBDBDB"/>
</g>
<g style="mix-blend-mode:multiply" opacity="0.58">
<path d="M356.983 367.557C356.967 367.613 356.931 367.661 356.882 367.691C356.833 367.722 356.775 367.733 356.718 367.723L300.679 360.514C300.609 360.514 300.541 360.486 300.491 360.436C300.441 360.387 300.413 360.319 300.413 360.249C300.413 360.179 300.441 360.112 300.491 360.062C300.541 360.012 300.609 359.984 300.679 359.984L356.718 367.227C356.782 367.235 356.842 367.266 356.884 367.315C356.927 367.364 356.95 367.427 356.95 367.491L356.983 367.557Z" fill="#DBDBDB"/>
</g>
<g style="mix-blend-mode:multiply" opacity="0.47">
<path d="M349.891 268.216L300.911 360.315C300.88 360.345 300.838 360.363 300.794 360.363C300.751 360.363 300.71 360.345 300.679 360.315V360.117L349.692 268.018C349.692 268.018 349.692 268.018 349.924 268.018L349.891 268.216Z" fill="#DBDBDB"/>
</g>
<g style="mix-blend-mode:multiply" opacity="0.47">
<path d="M300.911 360.315H300.712L266.843 267.72H267.142L301.01 360.315H300.911Z" fill="#DBDBDB"/>
</g>
<g style="mix-blend-mode:multiply" opacity="0.48">
<path d="M349.891 268.216L267.042 267.753C267.025 267.723 267.015 267.689 267.015 267.654C267.015 267.619 267.025 267.585 267.042 267.555C267.027 267.53 267.02 267.501 267.02 267.472C267.02 267.443 267.027 267.415 267.042 267.389L349.891 267.886C349.891 267.886 349.924 268.183 349.891 268.216Z" fill="#DBDBDB"/>
</g>
<g style="mix-blend-mode:multiply" opacity="0.51">
<path d="M316.751 213.387L267.042 267.753C267.023 267.774 267 267.791 266.974 267.803C266.949 267.814 266.921 267.82 266.893 267.82C266.864 267.82 266.837 267.814 266.811 267.803C266.785 267.791 266.762 267.774 266.743 267.753C266.722 267.735 266.706 267.712 266.694 267.686C266.682 267.66 266.676 267.633 266.676 267.604C266.676 267.576 266.682 267.548 266.694 267.523C266.706 267.497 266.722 267.474 266.743 267.456L316.453 213.089C316.468 213.069 316.488 213.052 316.511 213.04C316.534 213.029 316.56 213.023 316.586 213.023C316.611 213.023 316.637 213.029 316.66 213.04C316.683 213.052 316.703 213.069 316.718 213.089C316.742 213.105 316.761 213.126 316.776 213.151C316.79 213.175 316.8 213.202 316.803 213.23C316.806 213.259 316.803 213.287 316.794 213.314C316.785 213.341 316.771 213.366 316.751 213.387Z" fill="#DBDBDB"/>
</g>
<g style="mix-blend-mode:multiply" opacity="0.54">
<path d="M267.075 267.753C267.03 267.779 266.978 267.793 266.926 267.793C266.874 267.793 266.822 267.779 266.777 267.753C266.755 267.735 266.739 267.712 266.727 267.686C266.716 267.66 266.709 267.632 266.709 267.604C266.709 267.576 266.716 267.548 266.727 267.523C266.739 267.497 266.755 267.474 266.777 267.456L288.616 206.508C288.658 206.473 288.71 206.454 288.765 206.454C288.819 206.454 288.872 206.473 288.914 206.508C288.972 206.53 289.021 206.572 289.051 206.627C289.082 206.681 289.092 206.745 289.08 206.806L267.207 267.753H267.075Z" fill="#DBDBDB"/>
</g>
<g style="mix-blend-mode:multiply" opacity="0.52">
<path d="M267.042 267.753C267 267.788 266.947 267.807 266.893 267.807C266.838 267.807 266.785 267.788 266.743 267.753L216.769 229.922C216.734 229.88 216.715 229.827 216.715 229.773C216.715 229.718 216.734 229.666 216.769 229.624C216.769 229.624 217.001 229.624 217.067 229.624L267.075 267.456C267.094 267.476 267.109 267.501 267.118 267.528C267.126 267.555 267.13 267.584 267.127 267.612C267.123 267.64 267.114 267.667 267.099 267.692C267.085 267.716 267.065 267.737 267.042 267.753Z" fill="#DBDBDB"/>
</g>
<g style="mix-blend-mode:multiply" opacity="0.45">
<path d="M428.896 203.168L391.78 199.861C391.78 199.861 391.779 199.696 391.945 199.861L429.062 202.97C429.062 202.97 429.227 202.97 429.062 203.135L428.896 203.168Z" fill="#DBDBDB"/>
</g>
<g style="mix-blend-mode:multiply" opacity="0.44">
<path d="M391.78 200.027L316.718 213.254V213.056L391.78 199.828H391.978L391.78 200.027Z" fill="#DBDBDB"/>
</g>
<g style="mix-blend-mode:multiply" opacity="0.46">
<path d="M428.896 203.168L349.891 268.216C349.857 268.24 349.817 268.253 349.775 268.253C349.733 268.253 349.693 268.24 349.659 268.216V267.985L428.631 202.937C428.631 202.937 428.829 202.937 428.863 202.937L428.896 203.168Z" fill="#DBDBDB"/>
</g>
<g style="mix-blend-mode:multiply" opacity="0.5">
<path d="M369.543 260.676L349.924 268.216C349.885 268.243 349.839 268.258 349.791 268.258C349.744 268.258 349.698 268.243 349.659 268.216C349.635 268.182 349.622 268.142 349.622 268.1C349.622 268.059 349.635 268.018 349.659 267.985L369.278 260.445C369.309 260.414 369.35 260.397 369.394 260.397C369.437 260.397 369.478 260.414 369.509 260.445L369.543 260.676Z" fill="#DBDBDB"/>
</g>
<g style="mix-blend-mode:multiply" opacity="0.56">
<path d="M349.957 268.249C349.905 268.289 349.841 268.311 349.775 268.311C349.709 268.311 349.645 268.289 349.592 268.249L316.453 213.387C316.415 213.34 316.395 213.281 316.395 213.221C316.395 213.161 316.415 213.103 316.453 213.056C316.505 213.016 316.569 212.994 316.635 212.994C316.701 212.994 316.766 213.016 316.818 213.056L349.957 267.919C349.99 267.967 350.008 268.025 350.008 268.084C350.008 268.143 349.99 268.2 349.957 268.249Z" fill="#DBDBDB"/>
</g>
<g style="mix-blend-mode:multiply" opacity="0.5">
<path d="M349.891 268.216H349.659L288.616 206.806C288.587 206.792 288.562 206.772 288.543 206.746C288.524 206.721 288.511 206.692 288.506 206.66C288.5 206.629 288.502 206.597 288.512 206.567C288.522 206.536 288.538 206.509 288.561 206.486C288.583 206.464 288.611 206.447 288.641 206.438C288.672 206.428 288.704 206.426 288.735 206.431C288.767 206.437 288.796 206.449 288.821 206.469C288.847 206.488 288.867 206.513 288.881 206.541L349.891 267.952V268.216Z" fill="#DBDBDB"/>
</g>
<g style="mix-blend-mode:multiply" opacity="0.58">
<path d="M103.796 258.295L35.0979 288.356C35.0561 288.391 35.0032 288.41 34.9487 288.41C34.8941 288.41 34.8412 288.391 34.7994 288.356C34.7994 288.356 34.7994 288.091 34.7994 288.058L103.465 257.998C103.484 257.976 103.506 257.96 103.532 257.948C103.558 257.936 103.586 257.93 103.614 257.93C103.642 257.93 103.67 257.936 103.696 257.948C103.722 257.96 103.744 257.976 103.763 257.998C103.786 258.014 103.806 258.035 103.821 258.059C103.835 258.083 103.845 258.111 103.848 258.139C103.851 258.167 103.848 258.196 103.839 258.223C103.83 258.25 103.816 258.274 103.796 258.295Z" fill="#DBDBDB"/>
</g>
<g style="mix-blend-mode:multiply" opacity="0.52">
<path d="M35.0979 288.322L-23.1618 312.397C-23.1927 312.428 -23.2341 312.444 -23.2775 312.444C-23.3208 312.444 -23.3626 312.428 -23.3936 312.397C-23.3936 312.397 -23.3936 312.199 -23.3936 312.133L34.8326 288.091C34.869 288.058 34.9163 288.041 34.9652 288.041C35.0142 288.041 35.0615 288.058 35.0979 288.091V288.322Z" fill="#DBDBDB"/>
</g>
<g style="mix-blend-mode:multiply" opacity="0.47">
<path d="M316.718 213.354L217.001 229.888H216.835V229.723L316.552 213.188L316.718 213.354Z" fill="#DBDBDB"/>
</g>
<g style="mix-blend-mode:multiply" opacity="0.52">
<path d="M288.914 206.806L217.034 229.955C216.999 229.939 216.969 229.914 216.948 229.881C216.926 229.849 216.915 229.811 216.915 229.773C216.915 229.734 216.926 229.696 216.948 229.664C216.969 229.632 216.999 229.606 217.034 229.591L288.881 206.442C288.92 206.415 288.966 206.401 289.014 206.401C289.061 206.401 289.107 206.415 289.146 206.442L288.914 206.806Z" fill="#DBDBDB"/>
</g>
<g style="mix-blend-mode:multiply" opacity="0.67">
<path d="M316.983 213.486C316.946 213.589 316.87 213.674 316.771 213.724C316.672 213.773 316.558 213.782 316.453 213.75L288.616 207.137C288.555 207.123 288.497 207.099 288.446 207.063C288.394 207.028 288.351 206.983 288.317 206.931C288.283 206.879 288.26 206.82 288.249 206.759C288.237 206.698 288.238 206.635 288.251 206.574C288.265 206.513 288.289 206.456 288.325 206.405C288.36 206.353 288.405 206.31 288.457 206.276C288.51 206.242 288.568 206.219 288.63 206.208C288.691 206.197 288.754 206.197 288.815 206.21L316.685 212.824C316.799 212.862 316.896 212.94 316.957 213.043C317.018 213.147 317.039 213.269 317.016 213.387L316.983 213.486Z" fill="#DBDBDB"/>
</g>
<g style="mix-blend-mode:multiply" opacity="0.46">
<path d="M428.896 203.168L369.509 260.676C369.509 260.676 369.51 260.676 369.311 260.676V260.445L428.664 202.97H428.896V203.168Z" fill="#DBDBDB"/>
</g>
<g style="mix-blend-mode:multiply" opacity="0.53">
<path d="M399.501 172.513L331.83 263.355C331.83 263.355 331.83 263.355 331.598 263.355C331.574 263.321 331.561 263.281 331.561 263.239C331.561 263.198 331.574 263.157 331.598 263.123L399.269 172.281C399.303 172.257 399.343 172.244 399.385 172.244C399.426 172.244 399.467 172.257 399.501 172.281C399.521 172.316 399.532 172.356 399.532 172.397C399.532 172.437 399.521 172.477 399.501 172.513Z" fill="#DBDBDB"/>
</g>
<g style="mix-blend-mode:multiply" opacity="0.58">
<path d="M331.896 263.355C331.86 263.388 331.813 263.405 331.764 263.405C331.715 263.405 331.668 263.388 331.631 263.355L295.542 184.583C295.509 184.547 295.491 184.5 295.491 184.451C295.491 184.402 295.509 184.355 295.542 184.318C295.578 184.286 295.626 184.268 295.675 184.268C295.724 184.268 295.771 184.286 295.807 184.318L331.896 263.09V263.355Z" fill="#DBDBDB"/>
</g>
<g style="mix-blend-mode:multiply" opacity="0.62">
<path d="M447.686 327.444L412.392 381.844C412.374 381.871 412.35 381.893 412.321 381.909C412.292 381.924 412.259 381.932 412.226 381.932C412.194 381.932 412.161 381.924 412.133 381.909C412.104 381.893 412.079 381.871 412.061 381.844C412.039 381.822 412.021 381.796 412.009 381.768C411.997 381.74 411.991 381.709 411.991 381.678C411.991 381.648 411.997 381.617 412.009 381.589C412.021 381.56 412.039 381.534 412.061 381.513L447.354 327.113C447.406 327.073 447.471 327.051 447.537 327.051C447.603 327.051 447.667 327.073 447.719 327.113C447.739 327.137 447.754 327.164 447.763 327.194C447.772 327.224 447.776 327.255 447.773 327.286C447.769 327.316 447.76 327.346 447.745 327.374C447.731 327.401 447.71 327.425 447.686 327.444Z" fill="#DBDBDB"/>
</g>
<g style="mix-blend-mode:multiply" opacity="0.56">
<path d="M399.534 172.513L295.807 184.55C295.76 184.551 295.714 184.534 295.677 184.504C295.641 184.474 295.616 184.431 295.608 184.385C295.603 184.36 295.604 184.335 295.61 184.311C295.616 184.287 295.627 184.265 295.643 184.246C295.659 184.227 295.679 184.211 295.702 184.201C295.725 184.191 295.749 184.186 295.774 184.186L399.501 172.149H399.7L399.534 172.513Z" fill="#DBDBDB"/>
</g>
<g style="mix-blend-mode:multiply" opacity="0.56">
<path d="M141.078 321.161L111.253 341.201C111.253 341.201 111.02 341.201 110.987 341.201C110.966 341.182 110.95 341.159 110.938 341.134C110.926 341.108 110.92 341.08 110.92 341.052C110.92 341.024 110.926 340.996 110.938 340.97C110.95 340.945 110.966 340.922 110.987 340.903L140.813 320.863C140.855 320.828 140.908 320.809 140.962 320.809C141.017 320.809 141.07 320.828 141.112 320.863C141.131 320.884 141.145 320.909 141.154 320.936C141.163 320.963 141.166 320.991 141.163 321.019C141.16 321.048 141.15 321.075 141.136 321.099C141.121 321.124 141.102 321.145 141.078 321.161Z" fill="#DBDBDB"/>
</g>
<g style="mix-blend-mode:multiply" opacity="0.62">
<path d="M141.111 321.161L123.448 325.989C123.417 325.999 123.385 326.003 123.354 326C123.322 325.997 123.291 325.987 123.263 325.971C123.234 325.956 123.21 325.935 123.191 325.909C123.171 325.884 123.157 325.855 123.15 325.824C123.139 325.758 123.154 325.691 123.191 325.636C123.228 325.581 123.284 325.542 123.349 325.526L140.979 320.698C141.009 320.688 141.042 320.684 141.073 320.687C141.105 320.69 141.136 320.7 141.164 320.715C141.192 320.731 141.217 320.752 141.236 320.777C141.255 320.803 141.269 320.832 141.277 320.863C141.287 320.893 141.291 320.926 141.288 320.957C141.285 320.989 141.275 321.02 141.26 321.048C141.244 321.076 141.223 321.101 141.197 321.12C141.172 321.139 141.143 321.153 141.111 321.161Z" fill="#DBDBDB"/>
</g>
<g style="mix-blend-mode:multiply" opacity="0.55">
<path d="M192.743 212.857L141.078 321.161C141.078 321.161 141.078 321.161 140.813 321.161C140.783 321.13 140.766 321.088 140.766 321.045C140.766 321.002 140.783 320.96 140.813 320.929L192.511 212.659C192.542 212.629 192.583 212.612 192.627 212.612C192.67 212.612 192.712 212.629 192.743 212.659C192.764 212.688 192.776 212.722 192.776 212.758C192.776 212.794 192.764 212.829 192.743 212.857Z" fill="#DBDBDB"/>
</g>
<g style="mix-blend-mode:multiply" opacity="0.54">
<path d="M192.743 212.858C192.703 212.881 192.657 212.893 192.61 212.893C192.564 212.893 192.518 212.881 192.478 212.858L140.648 187.658C140.62 187.62 140.606 187.573 140.606 187.526C140.606 187.479 140.62 187.433 140.648 187.394C140.663 187.373 140.683 187.357 140.706 187.345C140.729 187.334 140.754 187.328 140.78 187.328C140.806 187.328 140.831 187.334 140.854 187.345C140.877 187.357 140.897 187.373 140.912 187.394L192.743 212.791C192.747 212.813 192.747 212.836 192.743 212.858Z" fill="#DBDBDB"/>
</g>
<g style="mix-blend-mode:multiply" opacity="0.53">
<path d="M123.448 325.989C123.417 326.004 123.383 326.011 123.349 326.011C123.314 326.011 123.28 326.004 123.249 325.989C123.224 325.989 123.2 325.984 123.177 325.974C123.155 325.964 123.135 325.948 123.119 325.929C123.103 325.91 123.091 325.888 123.085 325.864C123.079 325.84 123.078 325.815 123.083 325.79L140.548 187.262C140.556 187.215 140.58 187.173 140.617 187.142C140.653 187.112 140.7 187.096 140.747 187.096C140.765 187.126 140.773 187.161 140.773 187.195C140.773 187.23 140.765 187.265 140.747 187.295L123.282 325.824L123.448 325.989Z" fill="#DBDBDB"/>
</g>
<g style="mix-blend-mode:multiply" opacity="0.84">
<path d="M123.945 326.22L111.683 341.466C111.541 341.603 111.351 341.68 111.153 341.68C110.955 341.68 110.765 341.603 110.623 341.466C110.492 341.32 110.421 341.132 110.421 340.936C110.421 340.741 110.492 340.553 110.623 340.407L122.885 325.195C123.007 325.072 123.167 324.993 123.34 324.973C123.513 324.954 123.687 324.993 123.835 325.086C123.982 325.179 124.093 325.319 124.149 325.483C124.205 325.647 124.203 325.826 124.144 325.989L123.945 326.22Z" fill="#DBDBDB"/>
</g>
<g style="mix-blend-mode:multiply" opacity="0.53">
<path d="M504.288 19.4992L426.377 54.2885C426.346 54.3188 426.304 54.3358 426.261 54.3358C426.218 54.3358 426.176 54.3188 426.145 54.2885C426.121 54.2547 426.108 54.2142 426.108 54.1727C426.108 54.1312 426.121 54.0907 426.145 54.057L504.057 19.2677H504.255L504.288 19.4992Z" fill="#DBDBDB"/>
</g>
<g style="mix-blend-mode:multiply" opacity="0.6">
<path d="M424.356 143.279C424.281 143.307 424.199 143.307 424.124 143.279C424.065 143.272 424.009 143.245 423.967 143.203C423.925 143.161 423.899 143.106 423.892 143.047L426.013 54.09C426.013 54.0286 426.037 53.9698 426.081 53.9263C426.124 53.8829 426.183 53.8585 426.244 53.8585C426.303 53.8655 426.359 53.8922 426.401 53.9342C426.443 53.9761 426.47 54.0311 426.477 54.09L424.356 143.047V143.279Z" fill="#DBDBDB"/>
</g>
<g style="mix-blend-mode:multiply" opacity="0.61">
<path d="M189.23 201.647C189.185 201.673 189.133 201.687 189.081 201.687C189.028 201.687 188.977 201.673 188.932 201.647L140.647 187.658C140.616 187.651 140.587 187.637 140.561 187.618C140.536 187.598 140.514 187.574 140.499 187.546C140.483 187.518 140.474 187.487 140.471 187.455C140.468 187.423 140.471 187.391 140.481 187.361C140.523 187.326 140.576 187.307 140.631 187.307C140.685 187.307 140.738 187.326 140.78 187.361L189.064 201.515C189.099 201.556 189.118 201.609 189.118 201.663C189.118 201.718 189.099 201.771 189.064 201.812L189.23 201.647Z" fill="#DBDBDB"/>
</g>
<g style="mix-blend-mode:multiply" opacity="0.69">
<path d="M141.045 187.658C141.045 187.658 141.045 187.857 140.78 187.857L91.8662 194.901C91.7759 194.904 91.6873 194.876 91.615 194.821C91.5427 194.767 91.4911 194.69 91.4686 194.603C91.459 194.557 91.4591 194.51 91.4694 194.464C91.4796 194.418 91.4994 194.375 91.5276 194.337C91.5558 194.3 91.592 194.269 91.6332 194.246C91.6744 194.224 91.7198 194.21 91.7667 194.206L140.681 187.162C140.771 187.16 140.86 187.187 140.932 187.242C141.004 187.296 141.056 187.373 141.078 187.46C141.083 187.528 141.072 187.596 141.045 187.658Z" fill="#DBDBDB"/>
</g>
<g style="mix-blend-mode:multiply" opacity="0.55">
<path d="M253.819 178.234L140.747 187.658C140.747 187.658 140.515 187.658 140.515 187.46C140.515 187.407 140.536 187.357 140.573 187.32C140.61 187.283 140.661 187.262 140.714 187.262L253.62 178.035C253.645 178.03 253.67 178.031 253.694 178.037C253.718 178.043 253.74 178.054 253.759 178.07C253.779 178.086 253.794 178.106 253.804 178.129C253.815 178.151 253.82 178.176 253.819 178.201V178.234Z" fill="#DBDBDB"/>
</g>
<g style="mix-blend-mode:multiply" opacity="0.54">
<path d="M253.786 178.234H253.587L233.703 50.9815C233.703 50.9554 233.709 50.9296 233.719 50.9055C233.729 50.8815 233.743 50.8596 233.762 50.8412C233.78 50.8228 233.802 50.8081 233.826 50.7982C233.85 50.7882 233.876 50.7831 233.902 50.7831C233.929 50.7831 233.954 50.7882 233.978 50.7982C234.003 50.8081 234.024 50.8228 234.043 50.8412C234.061 50.8596 234.076 50.8815 234.086 50.9055C234.096 50.9296 234.101 50.9554 234.101 50.9815L253.786 178.234Z" fill="#DBDBDB"/>
</g>
<g style="mix-blend-mode:multiply" opacity="0.59">
<path d="M320.364 93.3437L253.819 178.234C253.798 178.256 253.772 178.273 253.743 178.285C253.715 178.297 253.684 178.303 253.653 178.303C253.623 178.303 253.592 178.297 253.564 178.285C253.535 178.273 253.509 178.256 253.488 178.234C253.488 178.234 253.488 178.035 253.488 177.903L320.032 93.013C320.051 92.9919 320.074 92.975 320.099 92.9634C320.125 92.9518 320.153 92.9458 320.181 92.9458C320.209 92.9458 320.237 92.9518 320.263 92.9634C320.289 92.975 320.312 92.9919 320.33 93.013C320.352 93.0108 320.374 93.013 320.395 93.0193C320.416 93.0256 320.436 93.0359 320.453 93.0497C320.469 93.0636 320.483 93.0806 320.494 93.0998C320.504 93.119 320.511 93.1401 320.513 93.1618C320.515 93.1835 320.513 93.2055 320.506 93.2264C320.5 93.2473 320.49 93.2667 320.476 93.2836C320.462 93.3005 320.445 93.3144 320.426 93.3248C320.407 93.3351 320.385 93.3415 320.364 93.3437Z" fill="#DBDBDB"/>
</g>
<g style="mix-blend-mode:multiply" opacity="0.67">
<path d="M253.919 178.3V178.465L189.264 201.845C189.222 201.861 189.178 201.868 189.134 201.867C189.09 201.865 189.046 201.855 189.006 201.837C188.966 201.818 188.93 201.792 188.9 201.759C188.87 201.727 188.848 201.688 188.833 201.647C188.817 201.606 188.809 201.562 188.811 201.518C188.812 201.473 188.823 201.43 188.841 201.39C188.86 201.35 188.886 201.314 188.919 201.284C188.952 201.255 188.99 201.232 189.031 201.217L253.521 177.737C253.562 177.722 253.607 177.714 253.651 177.716C253.695 177.717 253.738 177.728 253.778 177.746C253.818 177.765 253.854 177.791 253.884 177.823C253.914 177.856 253.937 177.894 253.952 177.936C253.979 177.994 253.99 178.058 253.985 178.122C253.979 178.186 253.956 178.247 253.919 178.3Z" fill="#DBDBDB"/>
</g>
<g style="mix-blend-mode:multiply" opacity="0.58">
<path d="M239.337 336.869L207.291 388.887C207.244 388.925 207.186 388.945 207.125 388.945C207.065 388.945 207.007 388.925 206.96 388.887C206.938 388.866 206.92 388.84 206.908 388.812C206.896 388.783 206.89 388.753 206.89 388.722C206.89 388.691 206.896 388.661 206.908 388.632C206.92 388.604 206.938 388.578 206.96 388.557L238.973 336.538C239.02 336.5 239.078 336.48 239.138 336.48C239.199 336.48 239.257 336.5 239.304 336.538C239.329 336.557 239.349 336.581 239.364 336.608C239.379 336.636 239.388 336.666 239.391 336.696C239.394 336.727 239.391 336.758 239.381 336.788C239.372 336.818 239.357 336.845 239.337 336.869Z" fill="#DBDBDB"/>
</g>
<g style="mix-blend-mode:multiply" opacity="0.58">
<path d="M207.324 388.887C207.283 388.908 207.237 388.918 207.191 388.918C207.146 388.918 207.1 388.908 207.059 388.887C207.026 388.889 206.994 388.883 206.964 388.869C206.934 388.855 206.908 388.835 206.888 388.808C206.869 388.782 206.856 388.752 206.851 388.719C206.846 388.687 206.849 388.654 206.86 388.623L219.354 266.53C219.354 266.53 219.354 266.298 219.619 266.331C219.652 266.331 219.685 266.338 219.716 266.351C219.746 266.365 219.774 266.385 219.796 266.41C219.818 266.435 219.834 266.465 219.844 266.497C219.853 266.529 219.856 266.563 219.851 266.596L207.324 388.656V388.887Z" fill="#DBDBDB"/>
</g>
<g style="mix-blend-mode:multiply" opacity="0.74">
<path d="M268.003 387.763C267.959 387.84 267.896 387.904 267.821 387.95C267.746 387.996 267.66 388.023 267.572 388.028L207.092 389.251C206.969 389.251 206.851 389.202 206.764 389.116C206.677 389.029 206.629 388.911 206.629 388.788C206.628 388.662 206.676 388.541 206.762 388.449C206.848 388.357 206.966 388.301 207.092 388.292L267.539 387.102C267.665 387.101 267.787 387.149 267.879 387.235C267.972 387.321 268.028 387.439 268.036 387.565C268.036 387.565 268.003 387.697 268.003 387.763Z" fill="#DBDBDB"/>
</g>
<g style="mix-blend-mode:multiply" opacity="0.59">
<path d="M267.771 387.664C267.749 387.686 267.724 387.703 267.695 387.715C267.667 387.727 267.636 387.733 267.605 387.733C267.574 387.733 267.544 387.727 267.515 387.715C267.487 387.703 267.461 387.686 267.44 387.664L239.006 336.869C238.978 336.847 238.956 336.82 238.941 336.788C238.925 336.757 238.917 336.722 238.917 336.687C238.917 336.652 238.925 336.617 238.941 336.586C238.956 336.554 238.978 336.527 239.006 336.505C239.027 336.483 239.053 336.466 239.082 336.454C239.11 336.442 239.141 336.436 239.172 336.436C239.202 336.436 239.233 336.442 239.261 336.454C239.29 336.466 239.316 336.483 239.337 336.505L267.771 387.3C267.807 387.315 267.837 387.341 267.858 387.373C267.879 387.406 267.89 387.443 267.89 387.482C267.89 387.521 267.879 387.558 267.858 387.591C267.837 387.623 267.807 387.648 267.771 387.664Z" fill="#DBDBDB"/>
</g>
<g style="mix-blend-mode:multiply" opacity="0.57">
<path d="M267.771 387.664C267.727 387.694 267.675 387.71 267.622 387.71C267.569 387.71 267.517 387.694 267.473 387.664L219.52 266.794C219.49 266.744 219.475 266.687 219.475 266.629C219.475 266.571 219.49 266.514 219.52 266.463C219.564 266.434 219.616 266.418 219.669 266.418C219.722 266.418 219.774 266.434 219.818 266.463L267.771 387.498V387.664Z" fill="#DBDBDB"/>
</g>
<g style="mix-blend-mode:multiply" opacity="0.6">
<path d="M189.23 201.647C189.191 201.674 189.145 201.688 189.098 201.688C189.05 201.688 189.004 201.674 188.965 201.647L91.7997 194.537C91.7597 194.552 91.7164 194.557 91.6739 194.551C91.6315 194.546 91.5913 194.53 91.5562 194.506C91.5211 194.482 91.4923 194.449 91.4725 194.411C91.4527 194.374 91.4421 194.332 91.4421 194.289C91.4421 194.246 91.4527 194.204 91.4725 194.166C91.4923 194.129 91.5211 194.096 91.5562 194.072C91.5913 194.047 91.6315 194.032 91.6739 194.026C91.7164 194.021 91.7597 194.026 91.7997 194.041L188.965 201.151C189.029 201.159 189.089 201.19 189.132 201.239C189.174 201.288 189.198 201.351 189.197 201.415L189.23 201.647Z" fill="#DBDBDB"/>
</g>
<g style="mix-blend-mode:multiply" opacity="0.53">
<path d="M301.839 146.52C301.805 146.544 301.764 146.557 301.723 146.557C301.681 146.557 301.64 146.544 301.606 146.52C301.582 146.486 301.569 146.446 301.569 146.404C301.569 146.362 301.582 146.322 301.606 146.288L320.132 93.1122C320.166 93.088 320.206 93.075 320.247 93.075C320.289 93.075 320.33 93.088 320.364 93.1122C320.394 93.1431 320.411 93.1847 320.411 93.228C320.411 93.2713 320.394 93.3128 320.364 93.3437L301.872 146.52H301.839Z" fill="#DBDBDB"/>
</g>
<g style="mix-blend-mode:multiply" opacity="0.56">
<path d="M398.639 0.351809L320.363 93.3437C320.345 93.3648 320.322 93.3817 320.296 93.3933C320.271 93.4049 320.242 93.4109 320.214 93.4109C320.186 93.4109 320.158 93.4049 320.132 93.3933C320.107 93.3817 320.084 93.3648 320.065 93.3437C320.033 93.3073 320.015 93.2603 320.015 93.2115C320.015 93.1627 320.033 93.1155 320.065 93.0792L398.374 0.0541944C398.416 0.0192033 398.469 0 398.523 0C398.578 0 398.631 0.0192033 398.672 0.0541944C398.698 0.101337 398.708 0.154969 398.702 0.208098C398.696 0.261228 398.674 0.311349 398.639 0.351809Z" fill="#DBDBDB"/>
</g>
<g style="mix-blend-mode:multiply" opacity="0.61">
<path d="M320.397 93.3437C320.35 93.3813 320.291 93.4018 320.231 93.4018C320.171 93.4018 320.112 93.3813 320.065 93.3437L233.902 51.0146C233.87 50.9656 233.852 50.9081 233.852 50.8492C233.852 50.7904 233.87 50.7328 233.902 50.6839C233.949 50.6463 234.008 50.6259 234.068 50.6259C234.128 50.6259 234.187 50.6463 234.234 50.6839L320.397 93.0461C320.432 93.0878 320.451 93.1405 320.451 93.1949C320.451 93.2494 320.432 93.302 320.397 93.3437Z" fill="#DBDBDB"/>
</g>
<g style="mix-blend-mode:multiply" opacity="0.53">
<path d="M301.839 146.52L219.785 266.761C219.743 266.796 219.69 266.815 219.636 266.815C219.581 266.815 219.529 266.796 219.487 266.761C219.454 266.725 219.436 266.678 219.436 266.629C219.436 266.58 219.454 266.533 219.487 266.497L301.54 146.222C301.54 146.222 301.54 146.222 301.805 146.222C301.829 146.238 301.848 146.259 301.863 146.284C301.877 146.308 301.887 146.335 301.89 146.363C301.893 146.392 301.89 146.42 301.881 146.447C301.872 146.474 301.858 146.499 301.839 146.52Z" fill="#DBDBDB"/>
</g>
<g style="mix-blend-mode:multiply" opacity="0.61">
<path d="M239.371 336.869C239.388 336.923 239.388 336.981 239.371 337.034C239.296 337.055 239.216 337.046 239.148 337.009C239.08 336.972 239.029 336.91 239.006 336.836L219.52 266.761C219.482 266.714 219.462 266.656 219.462 266.596C219.462 266.536 219.482 266.477 219.52 266.431C219.594 266.41 219.674 266.419 219.742 266.456C219.81 266.493 219.861 266.555 219.884 266.629L239.371 336.704V336.869Z" fill="#DBDBDB"/>
</g>
<g style="mix-blend-mode:multiply" opacity="0.65">
<path d="M239.436 336.902L185.22 386.969C185.155 387.023 185.073 387.053 184.988 387.053C184.904 387.053 184.821 387.023 184.756 386.969C184.695 386.908 184.661 386.825 184.661 386.738C184.661 386.651 184.695 386.568 184.756 386.506L238.907 336.472C238.968 336.411 239.052 336.377 239.138 336.377C239.225 336.377 239.309 336.411 239.371 336.472C239.426 336.527 239.463 336.599 239.475 336.676C239.487 336.753 239.473 336.833 239.436 336.902Z" fill="#DBDBDB"/>
</g>
<g style="mix-blend-mode:multiply" opacity="0.59">
<path d="M234.134 51.0146L183.596 65.6644C183.535 65.6763 183.472 65.6662 183.417 65.636C183.363 65.6057 183.32 65.5573 183.298 65.4991C183.263 65.4574 183.244 65.4047 183.244 65.3503C183.244 65.2958 183.263 65.2432 183.298 65.2015L233.836 50.5516C233.878 50.5166 233.931 50.4974 233.985 50.4974C234.04 50.4974 234.092 50.5166 234.134 50.5516C234.169 50.5795 234.197 50.6148 234.216 50.6548C234.235 50.6949 234.245 50.7387 234.245 50.7831C234.245 50.8275 234.235 50.8713 234.216 50.9114C234.197 50.9514 234.169 50.9867 234.134 51.0146Z" fill="#DBDBDB"/>
</g>
<g style="mix-blend-mode:multiply" opacity="0.69">
<path d="M122.454 200.026C122.439 200.072 122.415 200.115 122.383 200.151C122.352 200.188 122.313 200.217 122.27 200.239C122.227 200.26 122.18 200.273 122.132 200.276C122.084 200.28 122.035 200.273 121.99 200.258L44.907 179.358C44.8059 179.327 44.7213 179.258 44.6716 179.165C44.6219 179.072 44.6113 178.963 44.642 178.862C44.6728 178.761 44.7422 178.676 44.8354 178.627C44.9286 178.577 45.0377 178.567 45.1388 178.597L122.188 199.497C122.24 199.505 122.29 199.523 122.334 199.551C122.378 199.579 122.415 199.617 122.444 199.661C122.472 199.705 122.49 199.754 122.498 199.806C122.505 199.858 122.502 199.91 122.487 199.96L122.454 200.026Z" fill="#DBDBDB"/>
</g>
<g style="mix-blend-mode:multiply" opacity="0.64">
<path d="M176.902 362.928C177.081 362.416 177.411 361.971 177.849 361.651C178.286 361.331 178.811 361.15 179.353 361.133C179.896 361.117 180.431 361.264 180.887 361.557C181.344 361.85 181.701 362.274 181.911 362.774C182.122 363.273 182.175 363.824 182.065 364.354C181.954 364.885 181.686 365.369 181.294 365.744C180.902 366.119 180.406 366.367 179.87 366.454C179.335 366.542 178.785 366.465 178.294 366.235C177.693 365.953 177.218 365.459 176.961 364.848C176.704 364.237 176.683 363.553 176.902 362.928Z" fill="#DBDBDB"/>
</g>
<g style="mix-blend-mode:multiply" opacity="0.64">
<path d="M285.368 389.384C285.512 389.058 285.718 388.764 285.977 388.519C286.235 388.274 286.539 388.083 286.873 387.957C287.206 387.831 287.561 387.772 287.917 387.784C288.273 387.796 288.623 387.879 288.947 388.028C289.439 388.246 289.855 388.605 290.142 389.06C290.429 389.515 290.573 390.044 290.558 390.581C290.543 391.118 290.369 391.638 290.057 392.076C289.745 392.514 289.31 392.85 288.807 393.04C288.303 393.231 287.754 393.268 287.23 393.147C286.705 393.026 286.229 392.752 285.86 392.361C285.492 391.969 285.249 391.477 285.161 390.947C285.073 390.417 285.145 389.873 285.368 389.384Z" fill="#DBDBDB"/>
</g>
<g style="mix-blend-mode:multiply" opacity="0.63">
<path d="M4.27811 336.009C4.49701 335.518 4.85697 335.103 5.31251 334.817C5.76804 334.531 6.29866 334.386 6.8368 334.401C7.37493 334.416 7.89642 334.59 8.3352 334.901C8.77398 335.213 9.11017 335.647 9.30123 336.149C9.4923 336.651 9.52969 337.199 9.40843 337.722C9.28718 338.246 9.01297 338.721 8.6204 339.089C8.22782 339.457 7.73447 339.7 7.20331 339.787C6.67215 339.875 6.12709 339.803 5.63694 339.581C4.98405 339.285 4.47477 338.743 4.22026 338.074C3.96575 337.405 3.98652 336.663 4.27811 336.009Z" fill="#DBDBDB"/>
</g>
<g style="mix-blend-mode:multiply" opacity="0.63">
<path d="M17.6995 295.598C17.8429 295.272 18.0496 294.979 18.3079 294.734C18.5663 294.489 18.8708 294.298 19.204 294.171C19.5371 294.045 19.8924 293.986 20.2485 293.999C20.6046 294.011 20.9547 294.094 21.2784 294.242C21.7703 294.461 22.1861 294.82 22.473 295.274C22.7599 295.729 22.9048 296.258 22.8897 296.795C22.8747 297.332 22.7004 297.853 22.3885 298.291C22.0766 298.729 21.6414 299.064 21.1381 299.255C20.6348 299.445 20.0861 299.483 19.5616 299.362C19.0371 299.241 18.5602 298.967 18.1918 298.575C17.8235 298.183 17.5801 297.691 17.4924 297.161C17.4047 296.631 17.4768 296.087 17.6995 295.598Z" fill="#DBDBDB"/>
</g>
<g style="mix-blend-mode:multiply" opacity="0.51">
<path d="M201.293 47.6083C201.415 47.3267 201.592 47.0722 201.814 46.8595C202.035 46.6468 202.298 46.4803 202.584 46.3695C202.871 46.2587 203.177 46.2059 203.485 46.2142C203.792 46.2225 204.095 46.2917 204.375 46.4178C204.684 46.5246 204.967 46.6942 205.206 46.916C205.445 47.1378 205.636 47.4069 205.765 47.7062C205.894 48.0054 205.96 48.3283 205.957 48.6542C205.955 48.9801 205.884 49.3019 205.75 49.5992C205.616 49.8964 205.422 50.1626 205.18 50.3807C204.937 50.5989 204.651 50.7642 204.341 50.8663C204.031 50.9683 203.703 51.0048 203.378 50.9734C203.053 50.942 202.738 50.8434 202.453 50.6839C202.171 50.5624 201.916 50.3854 201.703 50.1635C201.491 49.9416 201.326 49.6792 201.218 49.3921C201.11 49.105 201.061 48.7991 201.073 48.4926C201.086 48.1861 201.161 47.8854 201.293 47.6083Z" fill="#DBDBDB"/>
</g>
<g style="mix-blend-mode:multiply" opacity="0.61">
<path d="M78.8752 207.17C79.0674 206.691 79.3988 206.281 79.8266 205.993C80.2544 205.704 80.7593 205.55 81.2757 205.551C81.7921 205.551 82.2964 205.705 82.7239 205.994C83.1514 206.283 83.4824 206.694 83.6742 207.172C83.8659 207.65 83.9098 208.175 83.8 208.679C83.6901 209.182 83.4314 209.641 83.0577 209.997C82.6839 210.352 82.2121 210.588 81.7029 210.674C81.1936 210.759 80.6706 210.69 80.2008 210.476C79.6017 210.195 79.1317 209.697 78.8857 209.083C78.6397 208.47 78.6359 207.786 78.8752 207.17Z" fill="#DBDBDB"/>
</g>
<g style="mix-blend-mode:multiply" opacity="0.63">
<path d="M92.131 200.027C92.2743 199.701 92.481 199.407 92.7394 199.162C92.9977 198.917 93.3027 198.726 93.6358 198.6C93.969 198.474 94.3238 198.415 94.68 198.427C95.0361 198.439 95.3862 198.522 95.7099 198.671C96.2017 198.889 96.6176 199.248 96.9045 199.703C97.1914 200.158 97.3366 200.687 97.3216 201.224C97.3065 201.761 97.1319 202.281 96.8199 202.719C96.508 203.157 96.0728 203.493 95.5695 203.683C95.0662 203.874 94.5176 203.911 93.993 203.79C93.4685 203.669 92.9917 203.395 92.6233 203.004C92.2549 202.612 92.0115 202.12 91.9238 201.59C91.8362 201.06 91.9083 200.516 92.131 200.027Z" fill="#DBDBDB"/>
</g>
<g style="mix-blend-mode:multiply" opacity="0.53">
<path d="M184.624 39.1095C184.749 38.8018 184.936 38.5232 185.174 38.291C185.412 38.0589 185.695 37.8782 186.006 37.7602C186.317 37.6423 186.649 37.5896 186.981 37.6056C187.314 37.6215 187.639 37.7057 187.938 37.8528C188.464 38.1631 188.856 38.6558 189.041 39.2368C189.226 39.8179 189.19 40.4465 188.94 41.0028C188.69 41.559 188.244 42.0039 187.686 42.2525C187.128 42.501 186.498 42.5358 185.916 42.3503C185.614 42.228 185.339 42.0458 185.108 41.8146C184.878 41.5835 184.697 41.3082 184.576 41.0053C184.456 40.7025 184.398 40.3784 184.406 40.0526C184.414 39.7268 184.488 39.4059 184.624 39.1095Z" fill="#DBDBDB"/>
</g>
<g style="mix-blend-mode:multiply" opacity="0.62">
<path d="M153.207 137.293C153.402 136.815 153.737 136.407 154.167 136.121C154.597 135.834 155.103 135.683 155.62 135.687C156.137 135.691 156.642 135.85 157.067 136.143C157.493 136.435 157.821 136.849 158.009 137.329C158.197 137.81 158.236 138.336 158.121 138.839C158.006 139.342 157.743 139.8 157.365 140.152C156.987 140.504 156.512 140.735 156.001 140.815C155.491 140.895 154.967 140.82 154.499 140.6C153.901 140.319 153.433 139.819 153.193 139.204C152.952 138.589 152.958 137.905 153.207 137.293Z" fill="#DBDBDB"/>
</g>
<g style="mix-blend-mode:multiply" opacity="0.85">
<path d="M353.934 366.235C354.184 365.687 354.59 365.226 355.102 364.909C355.614 364.592 356.208 364.434 356.81 364.454C357.412 364.474 357.995 364.671 358.485 365.021C358.975 365.372 359.349 365.859 359.562 366.421C359.775 366.984 359.815 367.596 359.679 368.182C359.543 368.768 359.236 369.3 358.797 369.712C358.358 370.123 357.807 370.396 357.212 370.495C356.618 370.594 356.008 370.516 355.458 370.269C355.092 370.105 354.762 369.87 354.487 369.578C354.213 369.286 353.998 368.943 353.856 368.568C353.715 368.193 353.649 367.794 353.662 367.394C353.676 366.993 353.768 366.599 353.934 366.235Z" fill="#DBDBDB"/>
</g>
<g style="mix-blend-mode:multiply" opacity="0.86">
<path d="M297.928 358.992C298.268 358.26 298.881 357.691 299.638 357.406C300.394 357.122 301.232 357.145 301.971 357.471C302.519 357.72 302.982 358.126 303.3 358.636C303.617 359.147 303.776 359.741 303.756 360.341C303.736 360.942 303.538 361.524 303.187 362.012C302.836 362.501 302.348 362.875 301.784 363.087C301.22 363.299 300.606 363.34 300.02 363.204C299.433 363.068 298.899 362.762 298.487 362.324C298.074 361.886 297.801 361.336 297.702 360.743C297.602 360.15 297.681 359.541 297.928 358.992Z" fill="#DBDBDB"/>
</g>
<g style="mix-blend-mode:multiply" opacity="0.83">
<path d="M264.059 266.43C264.304 265.879 264.707 265.413 265.218 265.091C265.729 264.768 266.325 264.605 266.929 264.621C267.533 264.638 268.118 264.833 268.611 265.182C269.104 265.531 269.482 266.018 269.697 266.582C269.911 267.145 269.954 267.76 269.818 268.347C269.681 268.935 269.374 269.469 268.933 269.882C268.492 270.294 267.938 270.567 267.342 270.665C266.746 270.763 266.134 270.682 265.584 270.432C264.853 270.1 264.282 269.493 263.997 268.744C263.712 267.995 263.734 267.163 264.059 266.43Z" fill="#DBDBDB"/>
</g>
<g style="mix-blend-mode:multiply" opacity="0.79">
<path d="M388.93 198.77C389.165 198.236 389.553 197.784 390.047 197.471C390.54 197.158 391.114 196.998 391.699 197.012C392.283 197.026 392.85 197.212 393.328 197.548C393.805 197.884 394.173 198.354 394.382 198.898C394.592 199.442 394.635 200.036 394.506 200.605C394.377 201.174 394.081 201.691 393.657 202.092C393.232 202.493 392.698 202.759 392.122 202.856C391.546 202.954 390.954 202.878 390.421 202.639C390.066 202.485 389.746 202.262 389.479 201.983C389.212 201.705 389.002 201.376 388.864 201.016C388.725 200.656 388.659 200.272 388.671 199.886C388.682 199.501 388.77 199.121 388.93 198.77Z" fill="#DBDBDB"/>
</g>
<g style="mix-blend-mode:multiply" opacity="0.85">
<path d="M346.975 267.026C347.14 266.661 347.376 266.332 347.668 266.058C347.961 265.784 348.305 265.571 348.68 265.429C349.056 265.288 349.455 265.222 349.856 265.235C350.258 265.248 350.652 265.339 351.018 265.504C351.383 265.669 351.712 265.905 351.987 266.197C352.261 266.489 352.475 266.832 352.617 267.207C352.759 267.581 352.825 267.98 352.812 268.38C352.799 268.78 352.707 269.174 352.542 269.539C352.202 270.271 351.588 270.84 350.832 271.125C350.076 271.409 349.238 271.386 348.499 271.06C348.13 270.899 347.797 270.666 347.519 270.375C347.242 270.084 347.026 269.74 346.884 269.364C346.741 268.988 346.677 268.587 346.692 268.186C346.708 267.784 346.804 267.39 346.975 267.026Z" fill="#DBDBDB"/>
</g>
<g style="mix-blend-mode:multiply" opacity="0.91">
<path d="M32.0159 286.868C32.3886 286.123 33.0287 285.546 33.8088 285.252C34.5889 284.958 35.4517 284.968 36.2247 285.28C36.8425 285.53 37.3705 285.96 37.7397 286.513C38.1089 287.067 38.3021 287.719 38.2943 288.384C38.2865 289.049 38.0781 289.696 37.696 290.241C37.3138 290.786 36.7757 291.204 36.1523 291.439C35.5288 291.674 34.8486 291.716 34.2008 291.559C33.553 291.403 32.9678 291.055 32.5212 290.562C32.0745 290.068 31.7872 289.451 31.6971 288.792C31.607 288.133 31.7181 287.463 32.0159 286.868Z" fill="#DBDBDB"/>
</g>
<g style="mix-blend-mode:multiply" opacity="0.85">
<path d="M214.052 228.599C214.299 228.051 214.702 227.589 215.212 227.269C215.721 226.95 216.314 226.789 216.916 226.805C217.517 226.822 218.101 227.015 218.592 227.362C219.083 227.708 219.461 228.192 219.677 228.753C219.894 229.313 219.939 229.925 219.808 230.511C219.676 231.097 219.374 231.631 218.939 232.046C218.504 232.461 217.956 232.738 217.363 232.842C216.771 232.947 216.16 232.874 215.609 232.633C214.87 232.301 214.292 231.69 214 230.935C213.708 230.18 213.727 229.34 214.052 228.599Z" fill="#DBDBDB"/>
</g>
<g style="mix-blend-mode:multiply" opacity="0.83">
<path d="M285.931 205.483C286.181 204.936 286.587 204.475 287.099 204.158C287.611 203.841 288.206 203.682 288.808 203.702C289.41 203.722 289.993 203.92 290.483 204.27C290.972 204.62 291.347 205.107 291.559 205.67C291.772 206.232 291.813 206.845 291.677 207.43C291.541 208.016 291.233 208.548 290.794 208.96C290.355 209.372 289.804 209.644 289.21 209.744C288.616 209.843 288.005 209.764 287.456 209.517C287.09 209.353 286.76 209.118 286.485 208.826C286.21 208.534 285.995 208.191 285.854 207.816C285.712 207.441 285.646 207.042 285.66 206.642C285.673 206.242 285.765 205.848 285.931 205.483Z" fill="#DBDBDB"/>
</g>
<g style="mix-blend-mode:multiply" opacity="0.84">
<path d="M313.769 212.031C314.108 211.299 314.722 210.729 315.478 210.445C316.235 210.16 317.073 210.184 317.812 210.51C318.36 210.759 318.822 211.164 319.14 211.675C319.458 212.186 319.617 212.779 319.597 213.38C319.577 213.981 319.379 214.562 319.028 215.051C318.677 215.54 318.189 215.914 317.625 216.126C317.061 216.338 316.447 216.378 315.86 216.243C315.273 216.107 314.74 215.8 314.328 215.362C313.915 214.924 313.642 214.374 313.542 213.781C313.443 213.188 313.522 212.579 313.769 212.031Z" fill="#DBDBDB"/>
</g>
<g style="mix-blend-mode:multiply" opacity="0.86">
<path d="M425.946 201.845C426.191 201.287 426.596 200.813 427.111 200.484C427.626 200.156 428.228 199.988 428.839 200.001C429.449 200.015 430.042 200.209 430.542 200.56C431.042 200.91 431.427 201.402 431.646 201.971C431.866 202.54 431.911 203.161 431.776 203.756C431.641 204.351 431.332 204.892 430.888 205.311C430.444 205.73 429.885 206.008 429.283 206.109C428.68 206.21 428.061 206.131 427.504 205.88C426.764 205.547 426.186 204.937 425.895 204.182C425.603 203.427 425.621 202.587 425.946 201.845Z" fill="#DBDBDB"/>
</g>
<g style="mix-blend-mode:multiply" opacity="0.92">
<path d="M366.494 259.32C366.739 258.7 367.167 258.168 367.721 257.795C368.274 257.421 368.928 257.223 369.596 257.227C370.264 257.231 370.916 257.437 371.465 257.817C372.014 258.197 372.435 258.734 372.673 259.357C372.911 259.98 372.955 260.661 372.798 261.309C372.642 261.957 372.293 262.543 371.796 262.99C371.3 263.437 370.68 263.723 370.018 263.812C369.355 263.901 368.681 263.787 368.085 263.487C367.702 263.323 367.356 263.083 367.068 262.783C366.78 262.483 366.555 262.128 366.407 261.739C366.258 261.351 366.19 260.936 366.205 260.521C366.22 260.106 366.318 259.697 366.494 259.32Z" fill="#DBDBDB"/>
</g>
<g style="mix-blend-mode:multiply" opacity="0.9">
<path d="M100.681 256.906C100.923 256.286 101.348 255.752 101.899 255.376C102.45 255 103.102 254.799 103.77 254.799C104.438 254.8 105.09 255.001 105.641 255.377C106.192 255.753 106.616 256.287 106.858 256.908C107.1 257.529 107.148 258.208 106.997 258.857C106.845 259.506 106.501 260.094 106.009 260.544C105.517 260.994 104.9 261.286 104.239 261.38C103.578 261.474 102.904 261.368 102.305 261.073C101.561 260.707 100.981 260.077 100.681 259.305C100.38 258.534 100.38 257.678 100.681 256.906Z" fill="#DBDBDB"/>
</g>
<g style="mix-blend-mode:multiply" opacity="0.93">
<path d="M425.946 132.796C426.194 132.179 426.621 131.651 427.174 131.28C427.726 130.909 428.378 130.713 429.044 130.717C429.709 130.721 430.359 130.925 430.906 131.302C431.454 131.68 431.875 132.213 432.115 132.833C432.355 133.453 432.402 134.131 432.25 134.778C432.098 135.425 431.755 136.011 431.264 136.46C430.774 136.909 430.159 137.201 429.5 137.296C428.841 137.392 428.169 137.287 427.57 136.996C426.818 136.63 426.233 135.993 425.932 135.214C425.631 134.435 425.636 133.571 425.946 132.796Z" fill="#DBDBDB"/>
</g>
<g style="mix-blend-mode:multiply">
<path d="M328.482 261.834C328.865 260.983 329.57 260.319 330.444 259.987C331.317 259.655 332.286 259.683 333.139 260.064C333.991 260.446 334.657 261.15 334.989 262.021C335.322 262.892 335.294 263.86 334.912 264.711C334.722 265.132 334.452 265.512 334.115 265.829C333.779 266.146 333.383 266.393 332.951 266.558C332.519 266.722 332.058 266.8 331.595 266.786C331.133 266.773 330.678 266.669 330.256 266.48C329.833 266.291 329.453 266.021 329.135 265.685C328.818 265.349 328.569 264.955 328.405 264.523C328.24 264.092 328.162 263.632 328.176 263.171C328.189 262.709 328.293 262.255 328.482 261.834Z" fill="#DBDBDB"/>
</g>
<g style="mix-blend-mode:multiply">
<path d="M408.846 380.256C409.287 379.454 410.015 378.847 410.885 378.556C411.754 378.266 412.702 378.313 413.538 378.688C414.375 379.064 415.038 379.74 415.397 380.582C415.756 381.425 415.783 382.371 415.474 383.233C415.033 384.035 414.305 384.642 413.435 384.933C412.566 385.223 411.618 385.176 410.782 384.8C409.946 384.425 409.282 383.749 408.923 382.906C408.564 382.064 408.537 381.118 408.846 380.256Z" fill="#DBDBDB"/>
</g>
<g style="mix-blend-mode:multiply">
<path d="M292.526 183.095C292.814 182.522 293.263 182.045 293.818 181.722C294.373 181.399 295.01 181.244 295.651 181.275C296.293 181.307 296.911 181.524 297.432 181.899C297.952 182.275 298.351 182.794 298.582 183.392C298.812 183.991 298.863 184.643 298.729 185.27C298.594 185.897 298.28 186.471 297.825 186.923C297.369 187.375 296.792 187.685 296.163 187.816C295.534 187.946 294.881 187.892 294.283 187.658C293.853 187.491 293.463 187.236 293.138 186.91C292.813 186.584 292.56 186.193 292.395 185.764C292.229 185.334 292.156 184.875 292.178 184.415C292.201 183.956 292.319 183.506 292.526 183.095Z" fill="#DBDBDB"/>
</g>
<g style="mix-blend-mode:multiply">
<path d="M137.566 319.573C137.862 318.919 138.346 318.367 138.956 317.987C139.566 317.606 140.275 317.414 140.994 317.435C141.713 317.456 142.41 317.688 142.996 318.104C143.583 318.519 144.034 319.098 144.291 319.768C144.549 320.439 144.602 321.17 144.444 321.87C144.286 322.571 143.924 323.209 143.403 323.704C142.882 324.199 142.227 324.53 141.518 324.654C140.81 324.778 140.08 324.69 139.422 324.402C138.536 324.004 137.845 323.273 137.497 322.369C137.15 321.465 137.174 320.46 137.566 319.573Z" fill="#DBDBDB"/>
</g>
<g style="mix-blend-mode:multiply">
<path d="M396.253 171.124C396.535 170.542 396.981 170.056 397.536 169.725C398.091 169.393 398.732 169.231 399.378 169.259C400.025 169.286 400.648 169.502 401.173 169.879C401.698 170.256 402.101 170.779 402.332 171.382C402.564 171.985 402.613 172.642 402.474 173.272C402.335 173.903 402.014 174.479 401.551 174.93C401.088 175.381 400.503 175.686 399.868 175.809C399.232 175.932 398.575 175.867 397.977 175.621C397.559 175.449 397.18 175.194 396.865 174.872C396.549 174.549 396.303 174.165 396.142 173.744C395.98 173.322 395.907 172.873 395.926 172.422C395.945 171.971 396.057 171.53 396.253 171.124Z" fill="#DBDBDB"/>
</g>
<g style="mix-blend-mode:multiply">
<path d="M444.04 325.823C444.449 324.916 445.202 324.207 446.135 323.854C447.067 323.5 448.102 323.531 449.011 323.938C449.921 324.346 450.631 325.098 450.985 326.028C451.34 326.959 451.309 327.991 450.9 328.899C450.698 329.348 450.409 329.754 450.05 330.092C449.69 330.43 449.268 330.694 448.806 330.869C448.345 331.044 447.853 331.126 447.36 331.112C446.866 331.097 446.38 330.986 445.93 330.784C445.479 330.582 445.073 330.293 444.734 329.935C444.395 329.576 444.131 329.155 443.955 328.694C443.78 328.233 443.697 327.743 443.712 327.25C443.726 326.758 443.838 326.273 444.04 325.823Z" fill="#DBDBDB"/>
</g>
<g style="mix-blend-mode:multiply">
<path d="M189.23 211.303C189.522 210.645 190.002 210.088 190.611 209.702C191.22 209.316 191.93 209.12 192.651 209.137C193.372 209.154 194.071 209.384 194.661 209.798C195.251 210.212 195.705 210.791 195.965 211.463C196.225 212.134 196.279 212.867 196.121 213.57C195.964 214.272 195.6 214.912 195.078 215.408C194.556 215.904 193.898 216.235 193.187 216.358C192.476 216.481 191.745 216.39 191.086 216.098C190.646 215.908 190.248 215.633 189.916 215.288C189.584 214.943 189.324 214.535 189.151 214.089C188.978 213.643 188.896 213.166 188.91 212.688C188.923 212.21 189.032 211.739 189.23 211.303Z" fill="#DBDBDB"/>
</g>
<g style="mix-blend-mode:multiply">
<path d="M126.639 327.848C127.69 325.986 127.029 323.626 125.163 322.578C123.297 321.529 120.933 322.189 119.882 324.051C118.832 325.913 119.492 328.273 121.358 329.321C123.224 330.369 125.589 329.71 126.639 327.848Z" fill="#DBDBDB"/>
</g>
<g style="mix-blend-mode:multiply">
<path d="M107.475 339.515C107.79 338.818 108.305 338.23 108.954 337.825C109.604 337.42 110.36 337.216 111.126 337.239C111.891 337.262 112.633 337.511 113.257 337.954C113.881 338.398 114.36 339.016 114.632 339.73C114.905 340.444 114.959 341.223 114.788 341.969C114.617 342.714 114.229 343.392 113.673 343.917C113.116 344.443 112.416 344.792 111.661 344.92C110.906 345.049 110.129 344.952 109.43 344.64C108.96 344.436 108.537 344.141 108.183 343.771C107.83 343.402 107.554 342.965 107.372 342.488C107.19 342.01 107.105 341.501 107.123 340.991C107.14 340.48 107.26 339.978 107.475 339.515Z" fill="#DBDBDB"/>
</g>
<g style="mix-blend-mode:multiply">
<path d="M500.941 17.9779C501.23 17.3492 501.7 16.8201 502.29 16.4571C502.88 16.0942 503.565 15.9136 504.258 15.9383C504.951 15.9629 505.621 16.1915 506.184 16.5954C506.747 16.9994 507.177 17.5604 507.421 18.2081C507.665 18.8557 507.712 19.5608 507.555 20.2347C507.398 20.9086 507.044 21.5212 506.539 21.9951C506.034 22.4691 505.4 22.7833 504.717 22.8981C504.033 23.013 503.33 22.9235 502.698 22.6407C502.274 22.4515 501.892 22.1802 501.574 21.8428C501.256 21.5053 501.008 21.1084 500.845 20.6748C500.681 20.2412 500.606 19.7796 500.623 19.3167C500.639 18.8538 500.747 18.3988 500.941 17.9779Z" fill="#DBDBDB"/>
</g>
<g style="mix-blend-mode:multiply">
<path d="M420.71 141.625C420.911 141.175 421.199 140.768 421.558 140.429C421.917 140.09 422.34 139.825 422.802 139.65C423.264 139.474 423.757 139.392 424.251 139.408C424.745 139.423 425.231 139.536 425.681 139.74C426.132 139.942 426.538 140.231 426.877 140.589C427.215 140.948 427.479 141.37 427.655 141.83C427.83 142.291 427.913 142.781 427.899 143.274C427.884 143.767 427.772 144.251 427.57 144.701C427.368 145.15 427.079 145.556 426.719 145.894C426.36 146.232 425.937 146.496 425.476 146.671C425.014 146.846 424.523 146.928 424.029 146.914C423.535 146.899 423.049 146.788 422.599 146.586C422.147 146.386 421.74 146.098 421.4 145.74C421.06 145.381 420.795 144.959 420.619 144.498C420.444 144.037 420.361 143.546 420.377 143.053C420.393 142.56 420.506 142.075 420.71 141.625Z" fill="#DBDBDB"/>
</g>
<g style="mix-blend-mode:multiply">
<path d="M137.3 185.84C137.606 185.168 138.104 184.602 138.732 184.212C139.36 183.822 140.089 183.627 140.828 183.65C141.567 183.673 142.283 183.915 142.884 184.343C143.486 184.771 143.947 185.368 144.21 186.058C144.473 186.747 144.525 187.499 144.36 188.218C144.195 188.938 143.821 189.592 143.284 190.099C142.747 190.606 142.071 190.943 141.343 191.068C140.614 191.193 139.865 191.1 139.189 190.8C138.737 190.6 138.33 190.312 137.99 189.954C137.65 189.596 137.385 189.174 137.209 188.713C137.034 188.251 136.951 187.76 136.967 187.267C136.983 186.774 137.096 186.289 137.3 185.84Z" fill="#DBDBDB"/>
</g>
<g style="mix-blend-mode:multiply">
<path d="M250.075 176.58C250.39 175.883 250.905 175.295 251.554 174.89C252.204 174.485 252.96 174.282 253.725 174.305C254.491 174.328 255.233 174.577 255.857 175.02C256.481 175.463 256.959 176.081 257.232 176.796C257.505 177.51 257.559 178.289 257.388 179.034C257.217 179.78 256.829 180.458 256.273 180.983C255.716 181.508 255.016 181.857 254.261 181.986C253.506 182.115 252.729 182.017 252.03 181.706C251.094 181.28 250.363 180.503 249.997 179.544C249.631 178.584 249.659 177.519 250.075 176.58Z" fill="#DBDBDB"/>
</g>
<g style="mix-blend-mode:multiply">
<path d="M422.93 52.7341C423.229 52.0804 423.716 51.5296 424.328 51.1513C424.94 50.773 425.651 50.5842 426.371 50.6085C427.09 50.6329 427.787 50.8693 428.372 51.2881C428.957 51.7069 429.404 52.2893 429.658 52.9617C429.912 53.6341 429.961 54.3665 429.798 55.0665C429.636 55.7665 429.268 56.4026 428.744 56.8947C428.219 57.3869 427.56 57.7129 426.85 57.8317C426.14 57.9505 425.41 57.8568 424.753 57.5623C424.315 57.3658 423.92 57.0848 423.591 56.7354C423.262 56.386 423.005 55.9752 422.836 55.5264C422.666 55.0777 422.588 54.6001 422.604 54.1209C422.62 53.6417 422.731 53.1704 422.93 52.7341Z" fill="#DBDBDB"/>
</g>
<g style="mix-blend-mode:multiply">
<path d="M203.215 387.036C203.745 386.161 204.573 385.508 205.547 385.195C206.522 384.883 207.577 384.933 208.518 385.336C209.459 385.739 210.222 386.467 210.666 387.388C211.111 388.308 211.206 389.357 210.936 390.343C210.71 390.847 210.387 391.301 209.985 391.681C209.583 392.06 209.11 392.356 208.592 392.553C208.075 392.749 207.525 392.842 206.971 392.826C206.418 392.81 205.874 392.685 205.369 392.459C204.381 392.003 203.607 391.186 203.206 390.177C202.805 389.167 202.808 388.043 203.215 387.036Z" fill="#DBDBDB"/>
</g>
<g style="mix-blend-mode:multiply">
<path d="M263.695 385.845C264.039 385.081 264.602 384.435 265.313 383.99C266.025 383.546 266.853 383.321 267.692 383.346C268.531 383.371 269.344 383.645 270.027 384.131C270.711 384.617 271.235 385.295 271.532 386.079C271.829 386.862 271.887 387.716 271.698 388.532C271.508 389.348 271.081 390.09 270.468 390.664C269.856 391.237 269.088 391.616 268.259 391.753C267.431 391.89 266.581 391.779 265.816 391.434C265.307 391.209 264.847 390.885 264.464 390.481C264.081 390.077 263.783 389.601 263.585 389.082C263.388 388.562 263.296 388.008 263.315 387.452C263.334 386.897 263.463 386.35 263.695 385.845Z" fill="#DBDBDB"/>
</g>
<g style="mix-blend-mode:multiply">
<path d="M441.887 344.905C442.24 344.115 442.819 343.448 443.553 342.988C444.286 342.528 445.14 342.296 446.006 342.32C446.872 342.345 447.711 342.626 448.417 343.127C449.123 343.628 449.664 344.327 449.971 345.136C450.278 345.944 450.338 346.825 450.143 347.667C449.948 348.51 449.506 349.275 448.874 349.867C448.243 350.458 447.449 350.849 446.594 350.99C445.74 351.131 444.862 351.016 444.073 350.659C443.021 350.182 442.201 349.31 441.791 348.232C441.381 347.154 441.416 345.958 441.887 344.905Z" fill="#DBDBDB"/>
</g>
<g style="mix-blend-mode:multiply">
<path d="M88.2869 192.817C88.6021 192.121 89.1174 191.533 89.7671 191.128C90.4169 190.723 91.1721 190.519 91.9379 190.542C92.7036 190.565 93.4452 190.814 94.0694 191.257C94.6935 191.7 95.1723 192.318 95.4448 193.033C95.7173 193.747 95.7717 194.526 95.6009 195.272C95.4302 196.017 95.0418 196.695 94.4852 197.22C93.9287 197.746 93.2286 198.095 92.4735 198.223C91.7183 198.352 90.9422 198.254 90.2424 197.943C89.776 197.736 89.3551 197.438 89.0042 197.068C88.6532 196.698 88.3788 196.262 88.1971 195.786C88.0154 195.309 87.9301 194.802 87.9455 194.293C87.9609 193.783 88.0768 193.282 88.2869 192.817Z" fill="#DBDBDB"/>
</g>
<g style="mix-blend-mode:multiply">
<path d="M185.353 199.927C185.678 199.213 186.207 198.611 186.875 198.197C187.542 197.783 188.318 197.575 189.104 197.601C189.889 197.626 190.65 197.884 191.289 198.34C191.928 198.797 192.417 199.432 192.695 200.166C192.972 200.9 193.026 201.699 192.848 202.463C192.671 203.228 192.27 203.922 191.697 204.459C191.124 204.996 190.405 205.352 189.63 205.481C188.854 205.61 188.058 205.507 187.341 205.185C186.864 204.971 186.434 204.665 186.076 204.284C185.718 203.904 185.438 203.457 185.254 202.968C185.069 202.48 184.983 201.96 185 201.438C185.017 200.916 185.137 200.403 185.353 199.927Z" fill="#DBDBDB"/>
</g>
<g style="mix-blend-mode:multiply">
<path d="M316.619 91.7565C316.929 91.0555 317.441 90.4624 318.09 90.0523C318.739 89.6422 319.495 89.4336 320.263 89.4529C321.031 89.4722 321.775 89.7185 322.403 90.1607C323.03 90.6029 323.511 91.2209 323.786 91.9365C324.061 92.6522 324.116 93.4331 323.946 94.1803C323.775 94.9275 323.386 95.6073 322.828 96.1335C322.269 96.6597 321.567 97.0087 320.81 97.1361C320.053 97.2635 319.274 97.1636 318.574 96.8492C317.64 96.4299 316.911 95.6591 316.544 94.705C316.178 93.7509 316.205 92.6909 316.619 91.7565Z" fill="#DBDBDB"/>
</g>
<g style="mix-blend-mode:multiply">
<path d="M215.742 264.975C215.902 264.392 216.186 263.849 216.574 263.384C216.962 262.919 217.445 262.542 217.992 262.279C218.538 262.017 219.134 261.874 219.74 261.86C220.347 261.847 220.949 261.964 221.506 262.203C222.063 262.441 222.563 262.796 222.971 263.244C223.379 263.692 223.686 264.222 223.872 264.798C224.057 265.374 224.117 265.983 224.046 266.584C223.976 267.185 223.777 267.764 223.463 268.282C222.934 269.157 222.105 269.81 221.13 270.122C220.156 270.435 219.101 270.385 218.16 269.982C217.22 269.579 216.457 268.851 216.012 267.93C215.568 267.01 215.472 265.961 215.742 264.975Z" fill="#DBDBDB"/>
</g>
<g style="mix-blend-mode:multiply">
<path d="M235.029 334.951C235.521 333.871 236.42 333.029 237.531 332.608C238.642 332.187 239.875 332.221 240.961 332.702C241.766 333.066 242.445 333.659 242.912 334.408C243.38 335.156 243.615 336.026 243.587 336.908C243.56 337.789 243.271 338.643 242.758 339.361C242.245 340.079 241.53 340.629 240.704 340.942C239.878 341.255 238.978 341.317 238.116 341.12C237.255 340.923 236.471 340.476 235.864 339.835C235.257 339.194 234.854 338.389 234.705 337.519C234.557 336.65 234.669 335.756 235.029 334.951Z" fill="#DBDBDB"/>
</g>
<g style="mix-blend-mode:multiply">
<path d="M230.39 49.3279C230.705 48.6312 231.22 48.0432 231.87 47.6382C232.52 47.2332 233.275 47.0294 234.041 47.0524C234.806 47.0755 235.548 47.3244 236.172 47.7677C236.796 48.211 237.275 48.8289 237.547 49.5434C237.82 50.2579 237.874 51.0369 237.704 51.7821C237.533 52.5274 237.144 53.2055 236.588 53.7308C236.031 54.2561 235.331 54.6051 234.576 54.7338C233.821 54.8625 233.045 54.765 232.345 54.4537C231.409 54.0278 230.679 53.2509 230.313 52.2914C229.947 51.3319 229.974 50.2672 230.39 49.3279Z" fill="#DBDBDB"/>
</g>
<g style="mix-blend-mode:multiply">
<path d="M179.752 63.9448C180.074 63.23 180.601 62.6265 181.267 62.2102C181.932 61.7939 182.706 61.5834 183.491 61.6055C184.276 61.6275 185.037 61.881 185.678 62.334C186.319 62.787 186.811 63.4191 187.092 64.1508C187.373 64.8825 187.431 65.6809 187.259 66.4454C187.086 67.2099 186.69 67.9062 186.121 68.4466C185.552 68.9869 184.836 69.347 184.062 69.4817C183.289 69.6163 182.492 69.5192 181.774 69.2029C180.811 68.7691 180.058 67.9735 179.679 66.9888C179.301 66.0042 179.327 64.9102 179.752 63.9448Z" fill="#DBDBDB"/>
</g>
<g style="mix-blend-mode:multiply">
<path d="M297.895 144.668C298.226 143.928 298.77 143.303 299.457 142.871C300.145 142.44 300.945 142.221 301.756 142.243C302.568 142.264 303.355 142.526 304.018 142.993C304.682 143.461 305.191 144.115 305.482 144.871C305.773 145.628 305.834 146.453 305.655 147.244C305.476 148.034 305.066 148.754 304.478 149.313C303.89 149.871 303.149 150.243 302.349 150.382C301.548 150.521 300.725 150.419 299.982 150.091C299.488 149.873 299.041 149.559 298.668 149.168C298.296 148.777 298.004 148.316 297.81 147.812C297.616 147.308 297.524 146.771 297.538 146.232C297.553 145.692 297.674 145.161 297.895 144.668Z" fill="#DBDBDB"/>
</g>
<g style="mix-blend-mode:multiply">
<path d="M180.713 384.952C181.082 384.12 181.691 383.415 182.462 382.929C183.233 382.442 184.132 382.194 185.044 382.218C185.956 382.241 186.84 382.534 187.585 383.06C188.33 383.586 188.902 384.32 189.228 385.171C189.554 386.021 189.619 386.949 189.416 387.836C189.213 388.724 188.75 389.531 188.086 390.156C187.423 390.781 186.589 391.195 185.689 391.346C184.789 391.497 183.865 391.378 183.033 391.004C181.924 390.505 181.057 389.589 180.623 388.455C180.188 387.321 180.221 386.062 180.713 384.952Z" fill="#DBDBDB"/>
</g>
<g style="mix-blend-mode:multiply">
<path d="M40.9306 177.142C41.4286 176.069 42.3304 175.234 43.4407 174.819C44.5511 174.405 45.7802 174.443 46.8623 174.927C47.9085 175.435 48.7151 176.331 49.1107 177.423C49.5063 178.515 49.4599 179.718 48.9813 180.776C48.5026 181.835 47.6295 182.666 46.5472 183.092C45.4648 183.519 44.2582 183.508 43.1838 183.062C42.102 182.571 41.2584 181.673 40.8363 180.565C40.4143 179.456 40.4482 178.226 40.9306 177.142Z" fill="#DBDBDB"/>
</g>
<g style="mix-blend-mode:multiply">
<path d="M118.013 198.042C118.373 197.235 118.965 196.552 119.714 196.081C120.463 195.609 121.336 195.37 122.221 195.394C123.106 195.418 123.964 195.703 124.687 196.214C125.41 196.725 125.964 197.438 126.28 198.264C126.596 199.089 126.66 199.99 126.462 200.851C126.265 201.713 125.816 202.496 125.172 203.103C124.528 203.71 123.718 204.112 122.845 204.259C121.972 204.406 121.074 204.291 120.267 203.929C119.187 203.445 118.344 202.553 117.921 201.45C117.499 200.347 117.532 199.121 118.013 198.042Z" fill="#DBDBDB"/>
</g>
<g style="mix-blend-mode:multiply" opacity="0.52">
<path d="M351.813 23.2691L417.33 2.60053C417.345 2.57999 417.365 2.56336 417.388 2.55188C417.411 2.5404 417.437 2.53442 417.463 2.53442C417.488 2.53442 417.514 2.5404 417.537 2.55188C417.56 2.56336 417.58 2.57999 417.595 2.60053C417.622 2.63934 417.637 2.68553 417.637 2.73283C417.637 2.78013 417.622 2.82627 417.595 2.86509L352.078 23.5667C352.039 23.5938 351.993 23.6082 351.946 23.6082C351.898 23.6082 351.852 23.5938 351.813 23.5667V23.2691Z" fill="#DBDBDB"/>
</g>
<g style="mix-blend-mode:multiply" opacity="0.63">
<path d="M370.835 267.588C370.884 267.541 370.95 267.515 371.017 267.515C371.085 267.515 371.15 267.541 371.2 267.588L405.466 280.485C405.543 280.515 405.605 280.572 405.642 280.645C405.679 280.718 405.687 280.803 405.665 280.882C405.654 280.918 405.636 280.952 405.611 280.98C405.586 281.009 405.555 281.032 405.52 281.047C405.486 281.063 405.448 281.071 405.41 281.071C405.372 281.071 405.335 281.063 405.3 281.047L371.034 268.15C370.958 268.12 370.895 268.063 370.858 267.99C370.821 267.916 370.813 267.832 370.835 267.753V267.588Z" fill="#DBDBDB"/>
</g>
<g style="mix-blend-mode:multiply" opacity="0.83">
<path d="M354.829 24.5919C354.582 25.1396 354.178 25.6021 353.669 25.9213C353.159 26.2405 352.566 26.402 351.964 26.3855C351.363 26.3691 350.78 26.1754 350.288 25.8288C349.797 25.4822 349.419 24.9983 349.203 24.438C348.987 23.8776 348.941 23.266 349.073 22.68C349.204 22.094 349.506 21.56 349.941 21.145C350.376 20.7301 350.925 20.4529 351.517 20.3484C352.11 20.2438 352.72 20.3165 353.271 20.5574C354.011 20.8901 354.589 21.5002 354.88 22.2555C355.172 23.0107 355.153 23.8502 354.829 24.5919Z" fill="#DBDBDB"/>
</g>
<g style="mix-blend-mode:multiply" opacity="0.89">
<path d="M373.984 269.01C373.738 269.63 373.311 270.162 372.757 270.536C372.203 270.909 371.549 271.107 370.881 271.103C370.213 271.099 369.561 270.893 369.012 270.513C368.463 270.133 368.042 269.596 367.804 268.973C367.566 268.35 367.522 267.67 367.679 267.021C367.835 266.373 368.185 265.787 368.681 265.34C369.178 264.894 369.797 264.607 370.46 264.518C371.122 264.43 371.796 264.543 372.393 264.843C373.131 265.214 373.703 265.848 373.998 266.619C374.292 267.39 374.287 268.243 373.984 269.01Z" fill="#DBDBDB"/>
</g>
<g style="mix-blend-mode:multiply" opacity="0.93">
<path d="M408.383 281.973C408.119 282.574 407.682 283.084 407.127 283.437C406.572 283.79 405.925 283.97 405.267 283.954C404.61 283.938 403.972 283.728 403.434 283.349C402.897 282.97 402.485 282.44 402.25 281.827C402.016 281.214 401.969 280.545 402.117 279.905C402.264 279.265 402.6 278.684 403.08 278.235C403.56 277.786 404.163 277.49 404.812 277.384C405.461 277.278 406.127 277.368 406.726 277.641C407.516 278.002 408.132 278.658 408.442 279.469C408.752 280.279 408.731 281.178 408.383 281.973Z" fill="#DBDBDB"/>
</g>
</svg>
