<svg width="127" height="40" viewBox="0 0 127 40" fill="none" xmlns="http://www.w3.org/2000/svg">
<path d="M120.408 9.16474L117.769 8.87431L115.131 8.58388L112.476 8.37252L109.829 8.15946L107.17 8.01185L104.51 7.86425L101.848 7.78805L99.1816 7.71099L96.5124 7.70533L93.8457 7.70393L91.1775 7.76709L88.5093 7.83027L85.8414 7.96569L83.17 8.10026L80.5056 8.30873L77.8455 8.51465L75.1864 8.7894L72.5266 9.06755L69.8745 9.41622L67.2224 9.76486L64.5893 10.1976L61.9562 10.6303L59.3301 11.1225L56.6828 11.6131L54.0671 12.1801L51.4514 12.747L48.8529 13.3904L46.2586 14.0312L43.679 14.7442L41.0995 15.4572L38.5414 16.2441L35.9824 17.0344L33.4517 17.9002L30.9176 18.7652L28.4092 19.7015L25.9009 20.6378L23.4199 21.6531L20.9398 22.6649L18.5033 23.7633L16.0693 24.8515L13.621 25.9975L11.2103 27.1817L8.82424 28.3972L7.09252 29.3159L7.42615 28.9146L8.67085 27.3957L9.90371 25.8955L11.1569 24.4004L12.4068 22.9044L13.8423 21.2413L15.2828 19.5723L16.7234 17.9033L18.1605 16.2334L19.6088 14.5771L21.0587 12.9139L22.512 11.2516L23.9619 9.58851L25.4118 7.92536L26.8583 6.26141L28.3082 4.59829L29.7556 2.9309C30.0143 2.63488 30.1449 2.2482 30.1185 1.85591C30.0922 1.46362 29.9111 1.09789 29.6151 0.839128C29.3191 0.580368 28.9324 0.449803 28.5401 0.47615C28.1478 0.502498 27.7821 0.683585 27.5233 0.979607L26.0768 2.64359L24.6269 4.3067L23.1804 5.97069L21.7305 7.6338L20.2814 9.29354L18.8315 10.9567L17.3713 12.6028L15.9171 14.2685L14.4724 15.9401L13.0318 17.6092L11.5904 19.2816L10.1406 20.9592L8.88048 22.4526L7.62383 23.9469L6.37829 25.4692L5.14203 26.9686L3.89219 28.4645L2.64236 29.9605L2.49243 30.1292L2.28316 30.3482L2.03241 30.6039L1.75793 30.8971L1.47505 31.2098L1.16343 31.5948L0.781928 32.1755L0.578539 32.6631L0.494571 33.0032L0.46966 33.192L0.46089 33.3883L0.472553 33.5897L0.502037 33.7918L0.553632 33.9922L0.625568 34.1832L0.711078 34.3631L0.777693 34.4734L0.802466 34.5192L0.825555 34.5574L0.84347 34.5871L0.858863 34.6125L0.875846 34.6167L1.32597 35.0887L1.56603 35.2418L1.90816 35.4057L2.23742 35.5339L2.60231 35.6492L3.01054 35.75L3.44934 35.8583L3.91877 35.9742L4.43323 36.0831L4.98509 36.1868L5.56579 36.2905L6.18222 36.3957L6.83858 36.5L8.23117 36.7066L9.71809 36.9112L11.2891 37.1114L12.9221 37.3087L14.6036 37.5001L16.3191 37.6853L19.7593 38.0328L23.0999 38.345L26.1753 38.6061L27.5906 38.7208L28.8766 38.8181L30.019 38.898L31.0211 38.9613L31.8506 39.0073L32.4719 39.0343C32.8659 39.0512 33.2505 38.9108 33.541 38.6441C33.8315 38.3774 34.0042 38.0063 34.0211 37.6122C34.038 37.2182 33.8976 36.8337 33.6309 36.5431C33.3642 36.2526 32.993 36.0799 32.599 36.063L31.999 36.0376L31.2051 35.9932L30.2251 35.9282L29.0964 35.8517L27.8248 35.7543L26.4342 35.642L23.3766 35.3817L20.0564 35.0746L16.6375 34.7287L14.9433 34.5451L13.2762 34.3538L11.6636 34.1614L10.1172 33.9638L8.66174 33.7633L7.31081 33.5634L6.68934 33.4641L6.10011 33.3656L5.83056 33.3171L7.84046 32.2072L10.1721 30.9783L12.5225 29.7756L14.889 28.6094L17.2703 27.4866L19.7001 26.4154L22.1052 25.3417L24.5454 24.3453L26.9822 23.348L29.4507 22.4271L31.9192 21.5062L34.4142 20.6533L36.905 19.8029L39.4207 19.0271L41.9364 18.2514L44.4735 17.5496L47.014 16.8486L49.57 16.2164L52.1269 15.5808L54.7001 15.025L57.2742 14.4658L59.8621 13.9823L62.4543 13.4961L65.0543 13.0805L67.6551 12.6614L70.2664 12.3171L72.8777 11.9728L75.4959 11.7024L78.1176 11.4329L80.7421 11.2254L83.3656 11.0213L85.9971 10.8877L88.6243 10.7567L91.255 10.6843L93.8892 10.6127L96.5193 10.6159L99.1495 10.6191L101.772 10.6963L104.399 10.7709L107.016 10.9152L109.64 11.0612L112.251 11.2727L114.863 11.4808L117.464 11.762L120.066 12.0432L122.657 12.3941L125.266 12.7458C125.46 12.772 125.656 12.7598 125.845 12.71C126.034 12.6601 126.211 12.5736 126.367 12.4553C126.522 12.3369 126.652 12.1892 126.751 12.0204C126.849 11.8517 126.913 11.6652 126.939 11.4716C126.965 11.2781 126.953 11.0813 126.903 10.8925C126.854 10.7036 126.767 10.5265 126.649 10.3711C126.53 10.2157 126.383 10.0852 126.214 9.98691C126.045 9.88863 125.859 9.82455 125.665 9.79834L123.056 9.44664L120.408 9.16474Z" fill="#F4C01E"/>
</svg>
