<svg width="154" height="67" viewBox="0 0 154 67" fill="none" xmlns="http://www.w3.org/2000/svg">
<path d="M150.334 50.0495L150.169 50.6058L150.016 51.1184L149.879 51.5794L149.761 51.9768L149.653 52.3384L148.961 54.5029L148.215 56.6598L147.403 58.8015L146.631 60.9119L145.88 63.0112L145.17 65.1315C145.01 65.5593 144.688 65.9078 144.272 66.1034C143.857 66.299 143.38 66.3265 142.943 66.1801C142.505 66.0337 142.141 65.7248 141.928 65.3186C141.714 64.9124 141.667 64.4406 141.797 64.0027L142.52 61.8517L143.283 59.7127L144.059 57.5904L144.821 55.4856L145.548 53.3923L146.223 51.2703L146.446 50.5233L146.584 50.0583L146.734 49.5537L146.898 49.0013L147.072 48.4172L147.452 47.1416L147.861 45.7667L148.252 44.3345L148.981 41.355L149.399 39.0266L148.781 39.7382L146.952 41.6554L145.027 43.4875L143.012 45.254L140.911 46.943L138.723 48.5545L136.461 50.0959L134.12 51.5623L131.71 52.9519L129.24 54.2671L126.687 55.506L124.092 56.6675L121.448 57.7581L118.747 58.7756L116.007 59.6905L113.225 60.5542L110.401 61.3403L107.548 62.0486L104.664 62.6829L101.751 63.2393L98.819 63.7122L95.868 64.1319L92.9017 64.4562L89.9338 64.6978L86.9527 64.8663L83.974 64.9533L80.9977 64.9588L78.0266 64.8881L75.0659 64.7382L72.1221 64.5026L69.1967 64.1902L66.2869 63.796L63.4112 63.3167L60.5631 62.7592L57.749 62.1166L54.9782 61.3874L52.2494 60.5755L49.5627 59.681L46.9285 58.6983L44.3484 57.6366L41.8259 56.4838L39.3719 55.2476L36.9796 53.9217L34.6609 52.5095L32.4224 51.0043L30.2724 49.4217L28.1956 47.7398L26.2218 45.976L24.6025 44.4302L23.0453 42.8812L21.5417 41.3135L20.0854 39.734L18.6786 38.1346L17.3266 36.5126L16.0569 34.8632L14.8065 33.1935L13.5992 31.5107L12.4335 29.8057L11.3158 28.0717L10.2459 26.3087L9.22169 24.5247L8.24132 22.7104L7.30893 20.8672L6.41647 18.9926L5.5691 17.0838L4.76967 15.1461L4.0026 13.1877L3.28937 11.1804L2.6132 9.1366L1.97413 7.05623L1.37737 4.93655L0.82618 2.79582C0.724276 2.34752 0.802808 1.87841 1.0451 1.48861C1.2874 1.09881 1.67424 0.819193 2.12303 0.709427C2.5718 0.599656 3.04697 0.668429 3.44718 0.901081C3.84739 1.13373 4.14092 1.51183 4.26509 1.95467L4.80973 4.05885L5.38128 6.10182L6.00032 8.10269L6.65121 10.0698L7.33805 12.0043L8.0832 13.9043L8.84135 15.7606L9.64983 17.5799L10.505 19.3742L11.3949 21.1399L12.33 22.8715L13.3118 24.578L14.3311 26.2611L15.4024 27.9164L16.5165 29.5455L17.6749 31.1575L18.8789 32.7484L20.1325 34.3196L21.4184 35.87L22.77 37.4054L24.1728 38.9301L25.62 40.4377L27.1236 41.9318L28.6676 43.4077L30.5376 45.08L32.4808 46.653L34.5178 48.1457L36.6289 49.5654L38.8137 50.8988L41.063 52.1476L43.3945 53.3258L45.7904 54.4192L48.2537 55.4333L50.7711 56.3682L53.3374 57.2269L55.9538 58.0053L58.6191 58.7075L61.3197 59.3206L64.0639 59.8602L66.8357 60.3215L69.6306 60.7205L72.4589 61.0213L75.3057 61.2454L78.1658 61.3956L81.0415 61.4639L83.9225 61.456L86.8034 61.3745L89.6868 61.2115L92.595 60.9651L95.4652 60.6555L98.3206 60.2636L101.155 59.8093L103.97 59.2755L106.772 58.6646L109.535 57.9814L112.26 57.2218L114.945 56.3899L117.59 55.4857L120.178 54.5253L122.722 53.4744L125.236 52.3666L127.665 51.1773L130.031 49.9177L132.335 48.5916L134.559 47.1944L136.712 45.7284L138.792 44.1844L140.782 42.588L142.68 40.9208L144.505 39.1928L146.217 37.4011L146.636 36.92L146.073 36.9603L144.528 37.1492L143.617 37.2721L142.724 37.3393L141.831 37.4025L140.883 37.449L139.9 37.4939L138.878 37.5229L137.821 37.5503L135.634 37.5613L133.386 37.5414L131.09 37.4768L128.834 37.3507L126.541 37.2178L122.272 36.7392L118.649 36.0248C118.195 35.9277 117.796 35.6576 117.539 35.2728C117.282 34.8879 117.187 34.419 117.275 33.9673C117.363 33.5156 117.627 33.1172 118.009 32.8581C118.392 32.599 118.862 32.4999 119.32 32.5822L122.781 33.2659L126.844 33.7179L128.993 33.838L131.2 33.9668L133.405 34.0262L135.583 34.0469L137.7 34.0235L138.711 34.0001L139.695 33.9683L140.645 33.9309L141.535 33.8757L142.398 33.8251L143.167 33.7642L144.025 33.6561L145.671 33.4537L147.635 33.3114L148.7 33.2995L149.73 33.3596L150.654 33.5133L151.224 33.6829L151.742 33.9104L152.253 34.2484L152.738 34.7474L153.106 35.4494L153.221 36.3098L153.046 39.013L152.49 42.1135L151.731 45.2226L151.318 46.7434L150.896 48.162L150.509 49.4614L150.334 50.0495Z" fill="#F4C01E"/>
</svg>
