<svg width="1102" height="867" viewBox="0 0 1102 867" fill="none" xmlns="http://www.w3.org/2000/svg">
<path opacity="0.56" d="M4.4029 873.859L4.27079 873.989L3.29087 874.956L2.93973 874.6L0.979919 876.533L1.28323 876.841C1.43575 876.825 1.59388 876.81 1.75759 876.795L1.8028 877.293C3.23101 877.164 5.10872 877.05 7.41668 876.952L7.39538 876.452C8.7152 876.396 10.1747 876.344 11.7703 876.298L11.7848 876.798C13.3489 876.753 15.0444 876.712 16.868 876.676L16.8581 876.176C18.5481 876.142 20.3477 876.113 22.2544 876.087L22.2611 876.587C23.7199 876.568 25.2415 876.55 26.8247 876.535L26.8199 876.035C28.4037 876.02 30.049 876.007 31.7547 875.996L31.7579 876.496C33.4631 876.486 35.2286 876.477 37.0534 876.471L37.0516 875.971C38.716 875.965 40.4296 875.961 42.1915 875.959L42.1922 876.459C43.7132 876.457 45.2702 876.456 46.8627 876.457L46.8629 875.957C48.4556 875.957 50.0838 875.959 51.7468 875.962L51.7458 876.462C53.4085 876.466 55.1061 876.47 56.838 876.476L56.8396 875.976C58.5717 875.981 60.338 875.988 62.1379 875.997L62.1356 876.497C63.7769 876.504 65.4461 876.513 67.1428 876.522L67.1456 876.022C68.7017 876.031 70.281 876.04 71.883 876.051L71.8798 876.551C73.4817 876.561 75.1064 876.573 76.7536 876.585L76.7573 876.085C78.4047 876.097 80.0745 876.11 81.7665 876.124L81.7624 876.624C83.4543 876.637 85.1682 876.652 86.904 876.667L86.9085 876.167C88.6443 876.183 90.402 876.199 92.1812 876.216L92.1764 876.716C93.7917 876.731 95.4248 876.747 97.0753 876.764L97.0803 876.264C98.6614 876.28 100.258 876.297 101.871 876.314L101.866 876.814C103.479 876.831 105.107 876.849 106.751 876.867L106.757 876.367C108.401 876.386 110.06 876.405 111.735 876.424L111.729 876.924C113.404 876.944 115.094 876.964 116.8 876.985L116.806 876.485C118.511 876.505 120.231 876.527 121.967 876.548L121.96 877.048C123.695 877.07 125.445 877.093 127.21 877.115L127.216 876.616C128.794 876.636 130.385 876.657 131.986 876.678L131.98 877.178C133.581 877.2 135.194 877.222 136.819 877.244L136.826 876.744C138.45 876.766 140.086 876.789 141.734 876.812L141.727 877.312C143.374 877.335 145.032 877.359 146.702 877.383L146.709 876.883C148.378 876.907 150.059 876.931 151.75 876.956L151.743 877.456C153.434 877.481 155.137 877.506 156.85 877.531L156.857 877.031L158.866 877.062C159.916 877.078 160.97 877.094 162.028 877.11L162.021 877.61C163.679 877.635 165.348 877.661 167.026 877.687L167.033 877.187L169.12 877.219L171.868 877.262L171.86 877.762C173.48 877.788 175.108 877.814 176.745 877.84L176.753 877.34C178.39 877.366 180.036 877.393 181.69 877.42L181.682 877.92C183.335 877.946 184.997 877.974 186.668 878.001L186.676 877.501C188.346 877.529 190.025 877.557 191.712 877.585L191.703 878.085C193.39 878.113 195.085 878.141 196.787 878.17L196.796 877.67L199.45 877.715L201.927 877.757L201.919 878.257C203.601 878.286 205.29 878.315 206.987 878.345L206.996 877.845C208.606 877.872 210.223 877.901 211.847 877.929L211.838 878.429C213.462 878.457 215.092 878.486 216.729 878.515L216.738 878.015C218.375 878.044 220.018 878.073 221.667 878.102L221.658 878.602C223.308 878.632 224.964 878.661 226.626 878.691L226.635 878.191C228.297 878.221 229.966 878.252 231.64 878.282L231.631 878.782C233.306 878.812 234.986 878.843 236.673 878.874L236.682 878.374L239.289 878.422L241.761 878.467L241.752 878.967C243.45 878.999 245.155 879.03 246.866 879.062L246.875 878.562C248.54 878.593 250.209 878.625 251.885 878.656L251.875 879.156C253.497 879.186 255.124 879.217 256.756 879.248L256.765 878.748C258.397 878.779 260.034 878.81 261.676 878.841L261.667 879.341C263.309 879.373 264.956 879.404 266.607 879.436L266.617 878.936C268.269 878.968 269.925 878.999 271.587 879.031L271.577 879.531C273.238 879.564 274.905 879.596 276.575 879.628L276.585 879.128L279.826 879.192L281.612 879.226L281.602 879.726C283.282 879.759 284.967 879.792 286.657 879.826L286.666 879.326L291.748 879.426L291.738 879.926C293.43 879.959 295.126 879.993 296.826 880.027L296.836 879.527L301.728 879.625L301.718 880.125C303.352 880.157 304.991 880.19 306.633 880.223L306.643 879.723L311.582 879.823L311.572 880.323C313.222 880.356 314.875 880.39 316.533 880.424L316.543 879.924L321.526 880.025L321.516 880.525C323.18 880.559 324.849 880.593 326.52 880.628L326.531 880.128L331.557 880.231L331.546 880.731C333.225 880.766 334.908 880.801 336.593 880.836L336.604 880.336L341.671 880.441L341.66 880.941C343.338 880.976 345.018 881.011 346.702 881.046L346.712 880.546L351.628 880.649L351.617 881.149C353.259 881.184 354.903 881.218 356.55 881.253L356.561 880.753L361.512 880.858L361.501 881.358C363.154 881.393 364.81 881.428 366.469 881.463L366.479 880.963L371.463 881.07L371.453 881.569C373.117 881.605 374.784 881.641 376.453 881.676L376.464 881.176L381.48 881.284L381.469 881.784C383.144 881.82 384.821 881.856 386.501 881.892L386.512 881.392L391.559 881.502L391.548 882.001C393.232 882.038 394.918 882.075 396.607 882.111L396.618 881.611L401.548 881.719L401.538 882.219C403.183 882.254 404.831 882.29 406.482 882.327L406.492 881.827L411.449 881.935L411.438 882.435C413.093 882.471 414.749 882.508 416.408 882.544L416.419 882.044L421.4 882.154L421.389 882.654C423.051 882.691 424.716 882.728 426.382 882.765L426.393 882.265L431.397 882.376L431.386 882.876C433.056 882.913 434.728 882.95 436.402 882.987L436.413 882.487L441.439 882.6L441.428 883.099C443.105 883.137 444.784 883.174 446.465 883.212L446.476 882.712L451.472 882.824L451.461 883.324C453.11 883.361 454.761 883.398 456.414 883.436L456.425 882.936L461.387 883.048L461.376 883.548C463.032 883.585 464.689 883.623 466.347 883.66L466.358 883.16L471.338 883.273L471.326 883.773C472.987 883.811 474.65 883.849 476.313 883.886L476.325 883.387L481.319 883.5L481.308 884C482.974 884.038 484.641 884.076 486.31 884.115L486.321 883.615L491.33 883.73L491.319 884.229C492.99 884.268 494.661 884.306 496.334 884.345L496.346 883.845L501.368 883.96L501.356 884.46C503.015 884.498 504.676 884.537 506.337 884.575L506.348 884.075L511.319 884.19L511.307 884.69C512.965 884.728 514.623 884.767 516.283 884.805L516.294 884.305L521.275 884.421L521.263 884.921C522.924 884.96 524.586 884.998 526.248 885.037L526.26 884.537L531.249 884.653L531.237 885.153C532.901 885.192 534.565 885.231 536.23 885.27L536.242 884.77L541.239 884.887L541.227 885.387C542.893 885.426 544.56 885.465 546.227 885.504L546.239 885.005L551.242 885.122L551.23 885.622C552.898 885.661 554.566 885.701 556.235 885.74L556.247 885.24L561.233 885.358L561.221 885.858C562.883 885.897 564.545 885.936 566.207 885.976L566.218 885.476L571.205 885.594L571.193 886.094C572.856 886.133 574.518 886.173 576.181 886.212L576.193 885.712L581.182 885.831L581.17 886.331C582.833 886.371 584.497 886.41 586.16 886.45L586.172 885.95L591.162 886.069L591.15 886.569C592.814 886.609 594.477 886.649 596.141 886.688L596.153 886.189L601.143 886.308L601.131 886.808C602.794 886.848 604.457 886.888 606.121 886.928L606.133 886.428L611.121 886.548L611.109 887.048C612.776 887.088 614.443 887.128 616.109 887.168L616.121 886.668L621.12 886.789L621.108 887.289C622.774 887.329 624.439 887.369 626.105 887.409L626.117 886.909L631.112 887.03L631.1 887.53C632.764 887.571 634.429 887.611 636.092 887.651L636.104 887.151L641.094 887.273L641.082 887.772C642.745 887.813 644.407 887.853 646.069 887.894L646.081 887.394L651.065 887.515L651.053 888.015C652.713 888.055 654.373 888.096 656.032 888.137L656.045 887.637L661.02 887.758L661.008 888.258C662.667 888.299 664.324 888.339 665.981 888.38L665.994 887.88L671.011 888.003L670.999 888.503C672.67 888.544 674.341 888.585 676.011 888.626L676.023 888.126L681.03 888.249L681.018 888.749C682.686 888.79 684.353 888.831 686.019 888.872L686.031 888.372L691.027 888.495L691.014 888.995C692.678 889.036 694.341 889.077 696.003 889.118L696.016 888.618L700.998 888.741L700.986 889.241C702.645 889.282 704.304 889.323 705.961 889.364L705.973 888.864L710.941 888.988L710.929 889.487C712.584 889.528 714.237 889.569 715.889 889.61L715.902 889.111L720.875 889.234L720.863 889.734C722.542 889.776 724.22 889.818 725.896 889.859L725.909 889.359L730.933 889.485L730.92 889.984C732.594 890.026 734.265 890.068 735.936 890.11L735.948 889.61L740.954 889.735L740.941 890.235C742.608 890.276 744.273 890.318 745.937 890.359L745.949 889.86L750.935 889.984L750.922 890.484C752.582 890.526 754.24 890.568 755.897 890.609L755.909 890.109L760.873 890.234L760.86 890.734C762.513 890.775 764.164 890.817 765.813 890.858L765.825 890.358L770.766 890.483L770.753 890.982C772.426 891.025 774.096 891.067 775.764 891.109L775.777 890.609L780.823 890.736L780.81 891.236C782.49 891.279 784.168 891.321 785.843 891.363L785.855 890.863L790.874 890.99L790.862 891.49C792.532 891.532 794.201 891.575 795.867 891.617L795.879 891.117L800.87 891.243L800.857 891.743C802.518 891.785 804.176 891.827 805.832 891.87L805.845 891.37L810.805 891.496L810.792 891.996C812.443 892.037 814.091 892.079 815.737 892.121L815.75 891.621L820.678 891.747L820.666 892.247C822.323 892.289 823.978 892.331 825.63 892.373L825.643 891.873L830.712 892.003L830.7 892.503C832.386 892.546 834.07 892.589 835.751 892.632L835.763 892.132L840.796 892.261L840.783 892.76C842.457 892.803 844.128 892.846 845.796 892.889L845.809 892.389L850.803 892.517L850.79 893.017C852.451 893.059 854.109 893.102 855.763 893.144L855.776 892.645L860.729 892.772L860.716 893.272C862.364 893.314 864.008 893.356 865.649 893.398L865.661 892.899L870.572 893.025L870.56 893.525C872.217 893.567 873.871 893.61 875.522 893.653L875.534 893.153L880.624 893.284L880.611 893.784C882.304 893.828 883.992 893.871 885.676 893.915L885.689 893.415L890.729 893.545L890.716 894.045C892.392 894.088 894.063 894.132 895.731 894.175L895.744 893.675L900.732 893.804L900.719 894.304C902.377 894.347 904.031 894.39 905.681 894.433L905.694 893.933L910.629 894.061L910.616 894.561C912.256 894.603 913.892 894.646 915.523 894.688L915.536 894.188L920.416 894.315L920.403 894.815C922.098 894.859 923.788 894.903 925.473 894.947L925.486 894.447L930.584 894.58L930.571 895.08C932.265 895.124 933.953 895.168 935.636 895.212L935.649 894.712L940.68 894.843L940.667 895.343C942.339 895.387 944.005 895.43 945.665 895.474L945.678 894.974L950.641 895.104L950.628 895.604C952.276 895.647 953.919 895.69 955.556 895.733L955.569 895.233L960.461 895.361L960.448 895.861C962.073 895.904 963.692 895.946 965.304 895.988L965.317 895.488L970.4 895.622L970.387 896.122C972.101 896.167 973.808 896.212 975.507 896.256L975.52 895.756L980.597 895.89L980.584 896.39C982.268 896.434 983.946 896.478 985.616 896.522L985.629 896.023L990.616 896.154L990.603 896.654C992.258 896.697 993.905 896.741 995.545 896.784L995.558 896.284L1000.45 896.414L1000.44 896.914C1002.06 896.956 1003.68 896.999 1005.29 897.042L1005.3 896.542L1010.25 896.673L1010.24 897.173C1011.97 897.218 1013.69 897.264 1015.41 897.31L1015.42 896.81L1020.53 896.945L1020.52 897.445C1022.21 897.49 1023.89 897.535 1025.57 897.579L1025.58 897.079L1030.57 897.212L1030.56 897.712C1032.21 897.755 1033.85 897.799 1035.49 897.843L1035.5 897.343L1040.37 897.472L1040.36 897.972C1041.97 898.015 1043.57 898.058 1045.16 898.1L1045.18 897.6L1050.24 897.735L1050.22 898.235C1051.97 898.282 1053.69 898.328 1055.41 898.373L1055.42 897.874L1060.52 898.01L1060.51 898.51C1062.2 898.555 1063.87 898.6 1065.53 898.644L1065.54 898.144L1070.48 898.276L1070.47 898.776C1072.1 898.82 1073.72 898.863 1075.32 898.906L1075.33 898.406L1080.1 898.534L1080.09 899.034C1081.81 899.08 1083.51 899.126 1085.19 899.171L1085.2 898.671L1090.41 898.811L1090.4 899.311C1092.12 899.357 1093.82 899.403 1095.5 899.448L1095.51 898.948L1100.49 899.082L1100.48 899.582C1102.12 899.626 1103.74 899.67 1105.34 899.713L1105.35 899.213L1110.09 899.341L1110.08 899.841C1111.79 899.887 1113.47 899.932 1115.13 899.977L1115.14 899.477L1120.41 899.62L1120.4 900.12C1122.12 900.166 1123.82 900.212 1125.49 900.258L1125.5 899.758L1130.41 899.891L1130.4 900.391C1132.01 900.434 1133.59 900.477 1135.13 900.519L1135.15 900.019L1140.05 900.152L1140.04 900.652C1141.88 900.702 1143.66 900.751 1145.4 900.798L1145.42 900.298L1150.48 900.436L1150.47 900.936C1152.11 900.981 1153.7 901.024 1155.24 901.066L1155.25 900.566L1159.95 900.694L1159.93 901.194C1161.87 901.247 1163.71 901.297 1165.45 901.345L1165.46 900.845L1170.39 900.98L1170.37 901.48C1171.98 901.524 1173.48 901.565 1174.87 901.603L1174.88 901.103L1180.51 901.258L1180.5 901.758C1182.58 901.815 1184.2 901.859 1185.32 901.891L1185.34 901.391L1186.75 901.43L1186.75 901.301L1186.8 899.446L1187.3 899.461C1187.34 898.325 1187.38 896.806 1187.44 894.923L1186.94 894.909C1186.98 893.44 1187.03 891.749 1187.09 889.844L1187.59 889.859C1187.63 888.347 1187.68 886.7 1187.73 884.923L1187.23 884.908L1187.36 880.785L1187.39 879.612L1187.89 879.627C1187.93 878.138 1187.98 876.579 1188.03 874.953L1187.53 874.939L1187.67 869.86L1188.17 869.875C1188.22 868.163 1188.27 866.389 1188.33 864.554L1187.83 864.539L1187.96 859.861L1188.46 859.875C1188.51 858.274 1188.55 856.633 1188.6 854.952L1188.1 854.937L1188.25 849.775L1188.75 849.789C1188.8 848.096 1188.84 846.368 1188.89 844.604L1188.39 844.589L1188.53 839.84L1189.03 839.854C1189.07 838.244 1189.12 836.607 1189.17 834.943L1188.67 834.929L1188.81 829.86L1189.31 829.874C1189.36 828.158 1189.41 826.417 1189.46 824.65L1188.96 824.636L1189.09 819.704L1189.59 819.718C1189.64 818.126 1189.68 816.514 1189.73 814.883L1189.23 814.869L1189.36 809.922L1189.86 809.936C1189.91 808.268 1189.96 806.581 1190 804.877L1189.5 804.863L1189.65 799.697L1190.14 799.71C1190.19 798.049 1190.24 796.371 1190.28 794.678L1189.78 794.664L1189.91 789.827L1190.41 789.841C1190.46 788.215 1190.5 786.575 1190.55 784.921L1190.05 784.908L1190.18 779.907L1190.68 779.92C1190.73 778.24 1190.77 776.546 1190.82 774.839L1190.32 774.826L1190.46 769.666L1190.96 769.68C1191 768.041 1191.05 766.391 1191.09 764.73L1190.59 764.717L1190.72 759.843L1191.22 759.856C1191.27 758.221 1191.31 756.576 1191.35 754.92L1190.85 754.907L1190.99 749.909L1191.49 749.923C1191.53 748.247 1191.58 746.561 1191.62 744.866L1191.12 744.852L1191.25 739.737L1191.75 739.75C1191.8 738.078 1191.84 736.396 1191.89 734.706L1191.39 734.693L1191.51 729.815L1192.01 729.828C1192.06 728.194 1192.1 726.552 1192.14 724.902L1191.64 724.889L1191.77 719.916L1192.27 719.929C1192.32 718.264 1192.36 716.591 1192.4 714.911L1191.9 714.898L1192.03 709.834L1192.53 709.847C1192.58 708.152 1192.62 706.449 1192.66 704.739L1192.16 704.726L1192.29 699.751L1192.79 699.764C1192.83 698.134 1192.87 696.499 1192.92 694.857L1192.42 694.844L1192.54 689.899L1193.04 689.912C1193.08 688.258 1193.12 686.598 1193.17 684.932L1192.67 684.919L1192.79 679.904L1193.29 679.917C1193.34 678.239 1193.38 676.556 1193.42 674.867L1192.92 674.855L1193.05 669.772L1193.55 669.784C1193.59 668.121 1193.63 666.452 1193.67 664.778L1193.17 664.766L1193.29 659.846L1193.79 659.858C1193.83 658.213 1193.87 656.564 1193.92 654.91L1193.42 654.897L1193.54 649.921L1194.04 649.934C1194.08 648.271 1194.12 646.603 1194.16 644.931L1193.66 644.919L1193.78 639.89L1194.28 639.902C1194.32 638.222 1194.36 636.537 1194.41 634.848L1193.91 634.836L1194.03 629.762L1194.53 629.774C1194.57 628.135 1194.61 626.493 1194.65 624.847L1194.15 624.835L1194.26 619.887L1194.76 619.899C1194.8 618.246 1194.84 616.59 1194.88 614.93L1194.38 614.918L1194.5 609.929L1195 609.941C1195.04 608.274 1195.08 606.605 1195.12 604.932L1194.62 604.92L1194.74 599.893L1195.24 599.904C1195.28 598.225 1195.32 596.543 1195.36 594.858L1194.86 594.847L1194.97 589.822L1195.47 589.833C1195.51 588.186 1195.55 586.537 1195.59 584.884L1195.09 584.873L1195.2 579.908L1195.7 579.92C1195.74 578.262 1195.78 576.602 1195.82 574.94L1195.32 574.929L1195.43 569.935L1195.93 569.946C1195.97 568.28 1196.01 566.61 1196.04 564.939L1195.54 564.928L1195.66 559.908L1196.16 559.919C1196.19 558.243 1196.23 556.566 1196.27 554.886L1195.77 554.875L1195.88 549.863L1196.38 549.874C1196.42 548.221 1196.46 546.566 1196.49 544.909L1195.99 544.897C1196.03 543.24 1196.07 541.582 1196.1 539.921L1196.6 539.932C1196.64 538.272 1196.68 536.61 1196.71 534.947L1196.21 534.936L1196.32 529.941L1196.82 529.952C1196.86 528.286 1196.89 526.618 1196.93 524.949L1196.43 524.938L1196.54 519.928L1197.04 519.938C1197.07 518.267 1197.11 516.594 1197.14 514.92L1196.65 514.91L1196.75 509.899L1197.25 509.91C1197.29 508.251 1197.32 506.59 1197.36 504.929L1196.86 504.919L1196.96 499.933L1197.46 499.943C1197.5 498.28 1197.53 496.617 1197.57 494.953L1197.07 494.942L1197.17 489.947L1197.67 489.957C1197.7 488.292 1197.74 486.625 1197.77 484.959L1197.27 484.948L1197.37 479.947L1197.87 479.957C1197.91 478.289 1197.94 476.621 1197.98 474.952L1197.48 474.942C1197.51 473.274 1197.54 471.606 1197.58 469.937L1198.08 469.947C1198.11 468.282 1198.14 466.617 1198.18 464.952L1197.68 464.942L1197.78 459.945L1198.28 459.955C1198.31 458.289 1198.34 456.624 1198.37 454.958L1197.87 454.948C1197.91 453.283 1197.94 451.617 1197.97 449.952L1198.47 449.961C1198.5 448.296 1198.54 446.631 1198.57 444.966L1198.07 444.956L1198.16 439.962L1198.66 439.971C1198.7 438.307 1198.73 436.642 1198.76 434.978L1198.26 434.969L1198.35 429.979L1198.85 429.988C1198.89 428.318 1198.92 426.647 1198.95 424.977L1198.45 424.968C1198.48 423.298 1198.51 421.628 1198.54 419.959L1199.04 419.969C1199.07 418.3 1199.1 416.632 1199.13 414.964L1198.63 414.955L1198.72 409.955L1199.22 409.964C1199.25 408.299 1199.28 406.634 1199.31 404.97L1198.81 404.961C1198.84 403.297 1198.87 401.634 1198.9 399.973L1199.4 399.982C1199.43 398.32 1199.46 396.659 1199.49 395L1198.99 394.991C1199.02 393.331 1199.05 391.673 1199.08 390.016L1199.58 390.025C1199.6 388.35 1199.63 386.677 1199.66 385.006L1199.16 384.997C1199.19 383.322 1199.22 381.647 1199.25 379.975L1199.75 379.983C1199.78 378.311 1199.8 376.64 1199.83 374.97L1199.33 374.962C1199.36 373.292 1199.39 371.624 1199.41 369.958L1199.91 369.966C1199.94 368.3 1199.97 366.635 1200 364.973L1199.5 364.965C1199.52 363.302 1199.55 361.641 1199.58 359.982L1200.08 359.99C1200.1 358.331 1200.13 356.673 1200.16 355.018L1199.66 355.01C1199.68 353.355 1199.71 351.702 1199.73 350.051L1200.23 350.059C1200.26 348.381 1200.29 346.705 1200.31 345.031L1199.81 345.024C1199.84 343.343 1199.86 341.664 1199.89 339.988L1200.39 339.995C1200.41 338.319 1200.44 336.645 1200.46 334.973L1199.96 334.966C1199.99 333.294 1200.01 331.625 1200.04 329.959L1200.54 329.966C1200.56 328.3 1200.59 326.636 1200.61 324.975L1200.11 324.968C1200.13 323.307 1200.16 321.648 1200.18 319.993L1200.68 320C1200.7 318.344 1200.73 316.691 1200.75 315.041L1200.25 315.034C1200.27 313.385 1200.3 311.738 1200.32 310.094L1200.82 310.1C1200.84 308.412 1200.86 306.727 1200.89 305.046L1200.39 305.039C1200.41 303.353 1200.43 301.671 1200.45 299.992L1200.95 299.998C1200.97 298.319 1201 296.643 1201.02 294.971L1200.52 294.965C1200.54 293.292 1200.56 291.624 1200.58 289.959L1201.08 289.965C1201.1 288.3 1201.12 286.638 1201.14 284.981L1200.64 284.975C1200.66 283.317 1200.68 281.663 1200.7 280.013L1201.2 280.019C1201.22 278.369 1201.24 276.723 1201.26 275.081L1200.76 275.075C1200.77 273.844 1200.79 272.614 1200.8 271.387L1200.81 270.111L1201.31 270.116C1201.33 268.419 1201.35 266.726 1201.37 265.037L1200.87 265.032C1200.89 263.343 1200.9 261.659 1200.92 259.98L1201.42 259.985C1201.44 258.306 1201.46 256.631 1201.47 254.962L1200.97 254.957C1200.99 253.287 1201.01 251.622 1201.02 249.962L1201.52 249.967C1201.54 248.307 1201.55 246.652 1201.57 245.002L1201.07 244.997C1201.09 243.347 1201.1 241.702 1201.11 240.063L1201.61 240.067C1201.63 238.428 1201.64 236.793 1201.66 235.164L1201.16 235.16C1201.17 233.457 1201.19 231.761 1201.2 230.07L1201.7 230.074C1201.71 228.376 1201.73 226.684 1201.74 224.998L1201.24 224.994C1201.25 223.308 1201.26 221.629 1201.28 219.955L1201.78 219.959C1201.79 218.285 1201.8 216.618 1201.81 214.958L1201.31 214.954C1201.32 213.294 1201.33 211.64 1201.34 209.992L1201.84 209.995C1201.85 208.348 1201.86 206.707 1201.87 205.072L1201.37 205.07L1201.38 202.724C1201.39 201.877 1201.39 201.031 1201.4 200.188L1201.9 200.19C1201.91 198.48 1201.91 196.777 1201.92 195.082L1201.42 195.08L1201.43 193.314C1201.44 192.202 1201.44 191.094 1201.44 189.988L1201.94 189.99C1201.95 188.301 1201.96 186.62 1201.96 184.948L1201.46 184.946C1201.47 183.273 1201.47 181.609 1201.48 179.953L1201.98 179.955C1201.98 178.299 1201.99 176.652 1201.99 175.013L1201.49 175.012C1201.49 173.373 1201.5 171.743 1201.5 170.122L1202 170.123C1202 168.465 1202 166.817 1202 165.178L1201.5 165.178C1201.51 163.452 1201.51 161.737 1201.51 160.032L1202.01 160.032C1202.01 158.328 1202.01 156.634 1202 154.951L1201.5 154.951C1201.5 153.269 1201.5 151.597 1201.5 149.936L1202 149.935C1201.99 148.274 1201.99 146.625 1201.99 144.986L1201.49 144.988C1201.48 143.349 1201.48 141.723 1201.47 140.107L1201.97 140.106C1201.97 138.465 1201.96 136.837 1201.95 135.22L1201.45 135.223C1201.45 133.48 1201.44 131.752 1201.43 130.038L1201.93 130.035C1201.92 128.321 1201.91 126.621 1201.9 124.937L1201.4 124.94C1201.39 123.255 1201.37 121.585 1201.36 119.93L1201.86 119.926C1201.85 118.271 1201.83 116.631 1201.82 115.007L1201.32 115.011C1201.3 113.387 1201.29 111.777 1201.27 110.184L1201.77 110.179C1201.75 108.479 1201.74 106.796 1201.72 105.132L1201.22 105.138C1201.2 103.394 1201.17 101.669 1201.15 99.965L1201.65 99.9582C1201.63 98.2537 1201.6 96.5695 1201.58 94.906L1201.08 94.9137C1201.05 93.2506 1201.03 91.6082 1201 89.9869L1201.5 89.9783C1201.47 88.3567 1201.44 86.7563 1201.41 85.1774L1200.91 85.187C1200.88 83.4768 1200.84 81.7918 1200.81 80.1327L1201.31 80.122C1201.27 78.3604 1201.23 76.6279 1201.19 74.9251L1200.69 74.9372C1200.65 73.2349 1200.6 71.5622 1200.56 69.92L1201.06 69.9064C1201.01 68.2636 1200.97 66.6511 1200.92 65.0695L1200.42 65.0847C1200.37 63.4412 1200.32 61.8311 1200.26 60.2552L1200.76 60.2381C1200.7 58.4242 1200.64 56.6554 1200.57 54.9329L1200.07 54.9523C1200 53.2306 1199.94 51.5552 1199.86 49.9272L1200.36 49.905C1200.29 48.2761 1200.22 46.6944 1200.14 45.161L1199.64 45.1862C1199.55 43.4217 1199.46 41.7216 1199.36 40.0872L1199.86 40.0579C1199.76 38.254 1199.64 36.5301 1199.53 34.8883L1199.03 34.9231C1198.92 33.2833 1198.8 31.7259 1198.67 30.2529L1199.17 30.2112C1199.01 28.3174 1198.85 26.5625 1198.67 24.9509L1198.18 25.0045C1197.99 23.2415 1197.79 21.6529 1197.58 20.2441L1198.07 20.1711C1197.76 18.0475 1197.43 16.3252 1197.07 15.0247L1196.59 15.1569C1196.38 14.4105 1196.17 13.8249 1195.97 13.3939C1195.57 12.5739 1195.17 11.7969 1194.77 11.0617L1195.21 10.8207C1194.32 9.19838 1193.4 7.77346 1192.45 6.53606L1192.06 6.83916C1190.95 5.38245 1189.81 4.19915 1188.64 3.26705L1188.96 2.87682C1187.51 1.71625 1186.01 0.92355 1184.47 0.468734L1184.32 0.948357C1182.77 0.489334 1181.15 0.389039 1179.49 0.6187L1179.42 0.123385C1177.83 0.342255 1176.2 0.848905 1174.54 1.61603L1174.75 2.07019C1173.34 2.71962 1171.89 3.56286 1170.42 4.58558L1170.13 4.1746C1168.8 5.0947 1167.46 6.15465 1166.09 7.34205L1166.42 7.71961C1165.19 8.78175 1163.95 9.94817 1162.69 11.2103L1162.34 10.8575C1161.18 12.0227 1160.01 13.2677 1158.82 14.5853L1159.19 14.9196C1158.1 16.143 1156.98 17.43 1155.86 18.7751L1155.48 18.4551C1154.42 19.7298 1153.35 21.0557 1152.27 22.4282L1152.66 22.7371C1151.64 24.0442 1150.6 25.3939 1149.56 26.7821L1149.16 26.482C1148.16 27.8208 1147.15 29.1951 1146.13 30.601L1146.53 30.894C1145.55 32.2541 1144.56 33.6442 1143.57 35.0607L1143.16 34.7734C1142.19 36.1546 1141.21 37.5608 1140.23 38.9888L1140.64 39.2717C1139.69 40.6653 1138.73 42.0799 1137.76 43.5126L1137.35 43.2334C1136.41 44.6324 1135.46 46.0485 1134.51 47.479L1134.93 47.7555C1133.99 49.1657 1133.05 50.59 1132.11 52.0257L1131.69 51.7512C1130.76 53.171 1129.82 54.6019 1128.89 56.0414L1129.3 56.3145C1128.38 57.7382 1127.45 59.1704 1126.51 60.6087L1126.09 60.3364C1125.18 61.7366 1124.27 63.1424 1123.36 64.5517C1123.34 64.5772 1123.33 64.6027 1123.31 64.6283L1123.73 64.9003L1123.68 64.9705C1122.77 66.377 1121.86 67.7869 1120.94 69.1979L1120.52 68.9256C1119.59 70.3564 1118.66 71.7883 1117.73 73.2189L1118.15 73.492C1117.21 74.9226 1116.28 76.3521 1115.34 77.7781L1114.93 77.5037C1113.99 78.9338 1113.05 80.3603 1112.11 81.7809L1112.52 82.0572C1111.58 83.4846 1110.63 84.9062 1109.68 86.3196L1109.27 86.0409C1108.31 87.4619 1107.36 88.8743 1106.4 90.2759L1106.81 90.5576C1105.85 91.9794 1104.88 93.3902 1103.9 94.7873L1103.49 94.502C1102.51 95.9147 1101.53 97.3134 1100.55 98.6955L1100.95 98.9852C1099.96 100.388 1098.96 101.775 1097.96 103.141L1097.56 102.846C1096.54 104.235 1095.53 105.602 1094.52 106.947L1094.92 107.248C1093.87 108.633 1092.83 109.995 1091.78 111.328L1091.39 111.02C1090.32 112.385 1089.25 113.721 1088.18 115.024L1088.57 115.341C1088.03 116 1087.49 116.651 1086.95 117.293L1086.57 116.972L1086.95 117.294C1086.39 117.962 1085.81 118.588 1085.21 119.175L1084.86 118.819C1083.63 120.021 1082.34 121.055 1080.97 121.944L1081.24 122.363C1079.81 123.292 1078.31 124.065 1076.73 124.712L1076.54 124.25C1075.02 124.871 1073.44 125.375 1071.78 125.787L1071.91 126.273C1070.31 126.669 1068.66 126.981 1066.95 127.23L1066.88 126.736C1065.27 126.97 1063.61 127.15 1061.9 127.294L1061.94 127.792C1060.32 127.928 1058.65 128.032 1056.94 128.119L1056.91 127.62C1055.29 127.703 1053.62 127.77 1051.92 127.837L1051.93 128.337C1051.52 128.353 1051.11 128.369 1050.69 128.385C1049.46 128.432 1048.2 128.48 1046.93 128.534L1046.91 128.034C1045.27 128.103 1043.6 128.181 1041.9 128.278L1041.93 128.778C1040.3 128.87 1038.65 128.981 1036.96 129.117L1036.92 128.619C1035.29 128.751 1033.63 128.907 1031.94 129.096L1032 129.593C1030.37 129.774 1028.73 129.986 1027.05 130.234L1026.98 129.739C1025.36 129.979 1023.72 130.253 1022.05 130.569L1022.14 131.06C1020.54 131.363 1018.91 131.703 1017.26 132.087L1017.15 131.6C1015.56 131.971 1013.94 132.383 1012.3 132.841L1012.44 133.323C1010.87 133.762 1009.28 134.243 1007.67 134.77L1007.52 134.295C1005.96 134.806 1004.38 135.361 1002.79 135.963L1002.97 136.43C1001.44 137.008 999.898 137.63 998.339 138.299L998.141 137.84C996.638 138.484 995.121 139.173 993.588 139.909L993.805 140.36C992.342 141.063 990.866 141.809 989.376 142.601L989.141 142.159C987.699 142.926 986.244 143.736 984.777 144.591L985.029 145.023C983.617 145.846 982.194 146.712 980.759 147.622L980.491 147.2C979.105 148.079 977.709 148.999 976.302 149.963L976.584 150.376C975.248 151.292 973.901 152.247 972.545 153.244L972.249 152.841C970.927 153.813 969.597 154.823 968.257 155.874L968.566 156.268C967.276 157.279 965.979 158.329 964.673 159.418L964.353 159.034C963.103 160.075 961.846 161.153 960.582 162.267L960.913 162.642C959.676 163.732 958.432 164.858 957.181 166.02L956.841 165.654C955.649 166.762 954.451 167.903 953.246 169.078L953.595 169.436C952.42 170.582 951.239 171.761 950.051 172.974L949.694 172.625C948.548 173.795 947.396 174.997 946.239 176.231L946.604 176.573C946.026 177.189 945.448 177.813 944.867 178.445C944.294 179.069 943.73 179.7 943.175 180.336L942.798 180.008C941.678 181.292 940.596 182.599 939.548 183.927L939.94 184.237C938.891 185.566 937.875 186.917 936.889 188.286L936.483 187.993C935.489 189.374 934.526 190.772 933.591 192.187L934.008 192.463C933.073 193.875 932.166 195.303 931.281 196.745L930.855 196.484C929.967 197.932 929.103 199.393 928.258 200.866L928.692 201.114C927.849 202.584 927.025 204.064 926.218 205.553L925.778 205.315C924.968 206.808 924.174 208.309 923.393 209.816L923.837 210.046C923.056 211.552 922.287 213.064 921.527 214.579L921.08 214.355C920.317 215.874 919.564 217.396 918.815 218.918L919.263 219.138C918.535 220.619 917.811 222.1 917.088 223.579L917.023 223.712L916.574 223.492C915.827 225.02 915.081 226.545 914.333 228.066L914.781 228.286C914.029 229.814 913.274 231.337 912.512 232.853L912.065 232.628C911.3 234.149 910.528 235.662 909.746 237.165L910.189 237.396C909.402 238.908 908.603 240.41 907.789 241.899L907.35 241.659C906.534 243.153 905.702 244.633 904.851 246.096L905.284 246.348C904.425 247.824 903.547 249.284 902.645 250.725L902.221 250.46C901.318 251.903 900.392 253.326 899.437 254.726L899.85 255.007C898.888 256.418 897.898 257.806 896.875 259.169L896.475 258.868C895.455 260.226 894.403 261.558 893.313 262.861L893.697 263.182C892.604 264.489 891.474 265.768 890.303 267.016L889.938 266.674C888.78 267.906 887.582 269.108 886.339 270.275L886.682 270.64C885.443 271.803 884.161 272.932 882.831 274.025L882.513 273.638C881.212 274.707 879.865 275.74 878.467 276.735L878.757 277.143C877.383 278.121 875.961 279.064 874.487 279.967L874.225 279.541C872.8 280.415 871.325 281.252 869.799 282.05L870.03 282.493C869.275 282.888 868.507 283.273 867.726 283.649C866.97 284.014 866.214 284.365 865.458 284.701L865.255 284.244C863.732 284.922 862.209 285.54 860.685 286.102L860.858 286.571C859.287 287.151 857.716 287.67 856.145 288.133L856.003 287.654C854.411 288.123 852.82 288.533 851.228 288.888L851.337 289.376C849.71 289.738 848.082 290.043 846.456 290.293L846.38 289.799C844.745 290.05 843.111 290.246 841.478 290.39L841.522 290.888C839.868 291.033 838.215 291.125 836.563 291.168L836.55 290.668C834.904 290.71 833.259 290.703 831.615 290.65L831.599 291.149C829.946 291.095 828.295 290.995 826.645 290.852L826.688 290.354C825.052 290.212 823.417 290.027 821.782 289.803L821.715 290.299C820.081 290.075 818.449 289.812 816.818 289.514L816.908 289.022C815.295 288.728 813.683 288.398 812.073 288.036L811.963 288.524C810.357 288.163 808.753 287.772 807.15 287.352L807.277 286.868C805.691 286.452 804.106 286.009 802.523 285.541L802.381 286.02C800.803 285.554 799.227 285.063 797.653 284.552L797.808 284.076C796.247 283.569 794.688 283.041 793.13 282.495L792.965 282.966C791.412 282.422 789.861 281.86 788.313 281.283L788.488 280.815C786.948 280.241 785.41 279.653 783.875 279.054L783.693 279.52C782.16 278.921 780.629 278.311 779.101 277.693L779.288 277.23C777.763 276.613 776.241 275.987 774.721 275.356L774.529 275.818C773.007 275.187 771.488 274.55 769.972 273.91L770.166 273.45C768.648 272.81 767.133 272.167 765.62 271.525L765.424 271.985C763.906 271.34 762.392 270.697 760.88 270.056L761.075 269.596C759.556 268.952 758.039 268.312 756.526 267.679L756.333 268.14C754.811 267.503 753.292 266.872 751.777 266.251L751.967 265.789C750.437 265.162 748.911 264.545 747.388 263.942L747.204 264.407C745.668 263.798 744.135 263.202 742.607 262.623L742.784 262.156C741.235 261.569 739.69 261 738.149 260.451L737.981 260.921C737.207 260.646 736.434 260.375 735.662 260.11L735.825 259.637L735.662 260.11C734.874 259.839 734.083 259.573 733.287 259.311L733.444 258.836C731.85 258.312 730.241 257.807 728.619 257.321L728.475 257.8C726.878 257.322 725.266 256.862 723.642 256.42L723.773 255.938C722.157 255.498 720.528 255.077 718.888 254.675L718.768 255.16C717.142 254.761 715.505 254.38 713.856 254.017L713.963 253.528C712.329 253.168 710.683 252.826 709.028 252.501L708.932 252.992C707.291 252.67 705.64 252.365 703.98 252.077L704.066 251.585C702.411 251.298 700.747 251.029 699.075 250.776L699 251.271C697.348 251.021 695.687 250.789 694.019 250.573L694.083 250.077C692.419 249.861 690.749 249.663 689.071 249.481L689.017 249.978C687.35 249.797 685.676 249.632 683.996 249.484L684.04 248.986C682.371 248.838 680.696 248.707 679.015 248.592L678.981 249.091C677.309 248.976 675.632 248.878 673.95 248.795L673.974 248.296C672.297 248.213 670.615 248.147 668.928 248.096L668.913 248.596C667.239 248.545 665.561 248.511 663.88 248.491L663.885 247.991C662.205 247.972 660.521 247.969 658.835 247.98L658.838 248.48C657.162 248.492 655.483 248.519 653.802 248.562L653.789 248.062C652.11 248.104 650.428 248.162 648.745 248.235L648.767 248.734C647.09 248.807 645.411 248.895 643.731 248.998L643.701 248.499C642.024 248.602 640.346 248.719 638.668 248.852L638.708 249.351C637.035 249.483 635.361 249.631 633.688 249.793L633.639 249.296C631.966 249.458 630.292 249.636 628.619 249.828L628.677 250.325C627.009 250.517 625.342 250.724 623.677 250.945L623.611 250.45C621.943 250.671 620.277 250.908 618.613 251.16L618.687 251.654C617.027 251.905 615.368 252.171 613.712 252.452L613.629 251.959C611.97 252.24 610.313 252.536 608.659 252.847L608.752 253.338C607.101 253.648 605.453 253.973 603.809 254.313L603.708 253.823C602.059 254.164 600.414 254.52 598.773 254.89L598.883 255.378C597.244 255.748 595.609 256.133 593.979 256.533L593.86 256.047C592.225 256.448 590.595 256.864 588.969 257.294L589.098 257.777C587.472 258.208 585.852 258.654 584.238 259.114L584.101 258.633C582.482 259.095 580.869 259.572 579.263 260.064L579.41 260.542C577.801 261.034 576.199 261.542 574.605 262.064L574.449 261.589C572.848 262.113 571.254 262.653 569.668 263.207L569.833 263.679C568.246 264.234 566.667 264.804 565.097 265.389L564.923 264.92C563.342 265.509 561.77 266.113 560.208 266.733L560.392 267.198C558.829 267.817 557.275 268.452 555.731 269.102L555.537 268.641C553.983 269.295 552.439 269.965 550.906 270.649L551.11 271.106C549.573 271.793 548.047 272.495 546.532 273.212L546.318 272.76C544.796 273.482 543.284 274.218 541.785 274.971L542.01 275.418C540.505 276.173 539.012 276.944 537.533 277.73L537.298 277.289C535.809 278.081 534.332 278.889 532.869 279.712L533.114 280.148C531.65 280.972 530.199 281.813 528.763 282.669L528.507 282.24C527.057 283.104 525.621 283.985 524.2 284.883L524.467 285.305C523.045 286.204 521.637 287.119 520.246 288.049L519.968 287.634C518.568 288.571 517.184 289.524 515.818 290.494L516.107 290.902C514.733 291.876 513.376 292.868 512.038 293.876L511.737 293.476C510.39 294.491 509.06 295.522 507.749 296.57L508.062 296.96C506.75 298.009 505.457 299.075 504.183 300.158L503.859 299.777C502.573 300.87 501.306 301.981 500.061 303.109L500.396 303.48C499.775 304.042 499.159 304.608 498.549 305.179L498.548 305.179C497.942 305.745 497.341 306.314 496.744 306.887L496.398 306.526C495.198 307.678 494.018 308.844 492.856 310.025L493.212 310.376C492.049 311.557 490.905 312.752 489.777 313.96L489.412 313.619C488.278 314.834 487.162 316.062 486.062 317.302L486.436 317.634C485.337 318.873 484.254 320.125 483.186 321.389L482.804 321.066C481.732 322.334 480.676 323.614 479.633 324.904L480.022 325.218C478.981 326.507 477.954 327.806 476.94 329.116L476.545 328.809C475.529 330.121 474.526 331.444 473.534 332.775L473.936 333.073C472.946 334.402 471.969 335.74 471.002 337.086L470.596 336.794C469.628 338.141 468.671 339.497 467.724 340.86L468.134 341.146C467.189 342.506 466.253 343.874 465.326 345.248L464.911 344.969C463.984 346.344 463.064 347.725 462.152 349.113L462.57 349.388C461.66 350.772 460.758 352.163 459.861 353.558L459.44 353.288C458.544 354.684 457.653 356.085 456.768 357.489L457.191 357.756C456.308 359.158 455.429 360.565 454.555 361.975L454.13 361.711C453.255 363.121 452.385 364.534 451.518 365.95L451.944 366.211C451.077 367.625 450.214 369.042 449.352 370.46L448.925 370.2C448.063 371.618 447.204 373.038 446.345 374.458L446.773 374.717C445.914 376.137 445.056 377.558 444.198 378.979L443.77 378.72C442.912 380.141 442.054 381.561 441.195 382.981L441.622 383.24C440.762 384.66 439.901 386.079 439.037 387.497L438.61 387.237C437.747 388.654 436.881 390.07 436.011 391.483L436.437 391.745C435.567 393.16 434.693 394.572 433.814 395.98L433.39 395.716C432.511 397.124 431.628 398.529 430.739 399.93L431.161 400.198C430.271 401.601 429.375 403 428.472 404.394L428.053 404.122C427.15 405.516 426.241 406.904 425.323 408.286L425.74 408.563C424.821 409.948 423.894 411.327 422.958 412.699L422.545 412.418C421.609 413.789 420.665 415.154 419.71 416.511L420.119 416.798C419.163 418.158 418.196 419.511 417.218 420.854L416.814 420.56C415.837 421.902 414.849 423.236 413.849 424.56L414.248 424.861C413.747 425.524 413.242 426.185 412.735 426.844C412.222 427.509 411.707 428.167 411.189 428.818L410.798 428.506C409.755 429.816 408.701 431.096 407.637 432.345L408.018 432.67C406.93 433.948 405.831 435.196 404.721 436.414L404.351 436.077C403.225 437.313 402.088 438.519 400.941 439.695L401.298 440.044C400.128 441.244 398.946 442.413 397.753 443.553L397.408 443.192C396.201 444.345 394.984 445.469 393.755 446.564L394.088 446.937C392.838 448.052 391.576 449.138 390.303 450.195L389.984 449.811C388.702 450.876 387.408 451.914 386.104 452.925L386.41 453.32C385.089 454.343 383.757 455.34 382.414 456.31L382.121 455.905C380.773 456.879 379.414 457.828 378.044 458.752L378.323 459.167C376.942 460.099 375.549 461.006 374.145 461.891L373.878 461.468C372.474 462.353 371.058 463.216 369.632 464.057L369.886 464.488C368.453 465.333 367.009 466.157 365.555 466.962L365.313 466.525C363.862 467.327 362.401 468.11 360.93 468.875L361.16 469.319C359.687 470.085 358.204 470.834 356.71 471.566L356.49 471.117C355.003 471.846 353.507 472.559 352 473.258L352.21 473.712C350.706 474.41 349.192 475.094 347.668 475.765L347.467 475.308C345.953 475.974 344.431 476.629 342.898 477.273L343.092 477.734C341.566 478.376 340.03 479.007 338.486 479.629L338.299 479.165C336.766 479.783 335.224 480.392 333.674 480.993L333.855 481.46C332.313 482.058 330.762 482.65 329.203 483.236L329.027 482.768C327.48 483.349 325.925 483.925 324.362 484.497L324.534 484.966C322.981 485.535 321.421 486.099 319.852 486.662L319.684 486.191C318.129 486.748 316.567 487.303 314.997 487.858L315.163 488.329C313.606 488.879 312.042 489.428 310.47 489.978L310.305 489.506C308.747 490.051 307.182 490.596 305.61 491.144L305.774 491.616L304.636 492.013C303.454 492.425 302.268 492.838 301.078 493.253L300.913 492.781C299.355 493.325 297.79 493.872 296.218 494.423L296.384 494.895C295.602 495.17 294.819 495.445 294.034 495.722M4.4029 873.859L293.868 495.251M4.4029 873.859L4.41799 873.674C4.48462 872.857 4.55181 872.04 4.61968 871.223L4.1214 871.182C4.25707 869.548 4.39552 867.913 4.53785 866.277L5.03597 866.321C5.17803 864.688 5.32395 863.054 5.47486 861.421L4.97697 861.375C5.12784 859.742 5.28369 858.108 5.44562 856.475L5.94318 856.524C6.10495 854.893 6.27279 853.262 6.44781 851.633L5.95067 851.579C6.12589 849.948 6.30831 848.317 6.49903 846.688L6.99564 846.746C7.18633 845.117 7.38531 843.491 7.59369 841.866L7.09775 841.803C7.30665 840.174 7.52501 838.548 7.75393 836.925L8.24904 836.995C8.47805 835.371 8.71764 833.75 8.96892 832.133L8.47485 832.056C8.72708 830.433 8.99109 828.814 9.268 827.199L9.76081 827.283C10.038 825.667 10.328 824.055 10.6322 822.448L10.1409 822.355C10.4464 820.74 10.7661 819.131 11.1012 817.527L11.5906 817.629C11.926 816.024 12.2767 814.425 12.6439 812.832L12.1567 812.72C12.5258 811.119 12.9116 809.524 13.3153 807.936L13.7998 808.059C14.2037 806.471 14.6255 804.889 15.0663 803.316L14.5848 803.181C15.028 801.599 15.4904 800.025 15.9732 798.459L16.451 798.607C16.9338 797.041 17.4369 795.485 17.9617 793.937L17.4882 793.777C18.0156 792.221 18.5649 790.676 19.1371 789.14L19.6057 789.314C20.1771 787.781 20.7714 786.257 21.3899 784.745L20.9271 784.556C21.5483 783.037 22.1937 781.528 22.8647 780.032L23.321 780.236C23.9896 778.745 24.6837 777.265 25.4044 775.797L24.9556 775.576C25.6781 774.105 26.4273 772.645 27.2045 771.198L27.645 771.435C28.4172 769.997 29.2171 768.573 30.0458 767.161L29.6146 766.908C30.4434 765.497 31.3009 764.098 32.1884 762.714L32.6093 762.984C33.4885 761.613 34.3971 760.255 35.3363 758.912L34.9266 758.626C35.8632 757.287 36.8301 755.962 37.8285 754.652L38.2262 754.955C39.2118 753.662 40.2283 752.384 41.2766 751.121L40.8919 750.802C41.9338 749.547 43.0071 748.307 44.1128 747.082L44.4839 747.417C45.5716 746.213 46.6909 745.024 47.8428 743.85L47.486 743.5C48.6268 742.338 49.7994 741.191 51.0049 740.061L51.3469 740.425C51.9427 739.866 52.5465 739.312 53.1585 738.761C53.8029 738.183 54.4517 737.613 55.1047 737.053L54.779 736.673C56.0987 735.54 57.4354 734.443 58.788 733.378L59.0972 733.771C60.4568 732.701 61.8325 731.664 63.2232 730.658L62.9301 730.253C64.3371 729.234 65.7593 728.248 67.1954 727.29L67.4728 727.706C68.9108 726.747 70.3631 725.817 71.8282 724.913L71.5657 724.487C73.0407 723.577 74.5286 722.694 76.0281 721.835L76.2766 722.269C77.775 721.41 79.2851 720.576 80.8059 719.762L80.5701 719.321C82.0968 718.505 83.634 717.71 85.1802 716.934L85.4045 717.381C86.9478 716.606 88.5004 715.85 90.061 715.11L89.8468 714.658C91.4104 713.917 92.9818 713.192 94.5597 712.48L94.7652 712.936C96.3399 712.226 97.9213 711.529 99.5081 710.843L99.3097 710.385C100.898 709.698 102.491 709.022 104.088 708.355L104.281 708.816C105.876 708.149 107.475 707.491 109.077 706.838L108.888 706.375C110.49 705.721 112.095 705.073 113.701 704.428L113.887 704.892C115.493 704.247 117.1 703.606 118.707 702.963L118.521 702.499C118.598 702.469 118.674 702.438 118.75 702.408C120.281 701.796 121.812 701.185 123.342 700.571L123.528 701.035C125.135 700.39 126.741 699.743 128.345 699.09L128.156 698.627C129.76 697.974 131.36 697.316 132.957 696.651L133.15 697.112C134.749 696.445 136.345 695.771 137.936 695.085L137.738 694.626C139.328 693.941 140.913 693.246 142.491 692.537L142.696 692.993C144.278 692.283 145.853 691.56 147.421 690.82L147.208 690.368C148.773 689.63 150.331 688.875 151.88 688.103L152.103 688.55C153.654 687.776 155.197 686.983 156.73 686.168L156.496 685.726C158.023 684.915 159.54 684.082 161.045 683.225L161.293 683.66C162.799 682.802 164.294 681.921 165.777 681.013L165.516 680.587C166.989 679.685 168.449 678.757 169.895 677.8L170.171 678.217C170.895 677.738 171.615 677.251 172.332 676.758L172.048 676.346L172.332 676.758C173.055 676.259 173.759 675.752 174.445 675.239L174.146 674.839C175.549 673.788 176.874 672.707 178.127 671.598L178.458 671.973C179.779 670.803 181.02 669.602 182.186 668.37L181.823 668.027C183.021 666.762 184.139 665.467 185.183 664.142L185.576 664.452C186.658 663.079 187.663 661.676 188.596 660.244L188.178 659.971C189.12 658.525 189.99 657.05 190.794 655.547L191.235 655.783C192.052 654.256 192.801 652.702 193.49 651.123L193.032 650.923C193.717 649.354 194.342 647.759 194.916 646.142L195.387 646.309C195.962 644.689 196.484 643.047 196.961 641.387L196.48 641.248C196.951 639.609 197.379 637.949 197.769 636.273L198.256 636.387C198.645 634.719 198.998 633.034 199.321 631.337L198.83 631.243C199.149 629.569 199.439 627.881 199.708 626.181L200.202 626.259C200.47 624.57 200.716 622.869 200.947 621.161L200.451 621.094C200.68 619.403 200.895 617.702 201.101 615.996L201.598 616.056C201.803 614.358 202.001 612.655 202.196 610.947L201.7 610.89C201.76 610.366 201.82 609.841 201.88 609.316C202.014 608.14 202.149 606.962 202.286 605.783L202.783 605.841C202.98 604.142 203.182 602.442 203.395 600.742L202.899 600.68C203.112 598.981 203.335 597.282 203.576 595.585L204.071 595.655C204.311 593.962 204.568 592.272 204.847 590.586L204.354 590.504C204.635 588.814 204.938 587.127 205.271 585.447L205.761 585.544C205.927 584.707 206.101 583.871 206.282 583.037C206.461 582.214 206.648 581.397 206.841 580.587L206.355 580.471C206.749 578.824 207.171 577.206 207.621 575.615L208.103 575.751C208.561 574.13 209.049 572.538 209.566 570.974L209.091 570.817C209.621 569.213 210.181 567.637 210.771 566.091L211.238 566.269C211.838 564.695 212.469 563.152 213.129 561.638L212.671 561.438C213.346 559.89 214.052 558.372 214.788 556.884L215.237 557.105C215.981 555.602 216.756 554.128 217.562 552.685L217.125 552.441C217.945 550.971 218.797 549.532 219.679 548.122L220.103 548.387C220.991 546.968 221.91 545.579 222.86 544.219L222.45 543.933C223.411 542.556 224.404 541.208 225.427 539.89L225.822 540.196C226.845 538.877 227.898 537.588 228.981 536.326L228.601 536.001C229.692 534.729 230.813 533.487 231.963 532.272L232.326 532.615C233.47 531.406 234.644 530.223 235.845 529.067L235.498 528.707C236.703 527.548 237.935 526.416 239.194 525.309L239.524 525.685C240.774 524.587 242.05 523.514 243.352 522.466L243.038 522.077C244.338 521.031 245.663 520.009 247.012 519.011L247.31 519.413C248.645 518.425 250.004 517.46 251.387 516.518L251.106 516.105C252.483 515.166 253.884 514.249 255.307 513.353L255.574 513.776C256.979 512.891 258.407 512.027 259.855 511.182L259.604 510.75C261.041 509.912 262.5 509.093 263.979 508.292L264.217 508.732C265.676 507.942 267.156 507.169 268.654 506.415L268.429 505.968C269.916 505.219 271.421 504.486 272.944 503.77L273.157 504.223C274.66 503.516 276.181 502.825 277.719 502.149L277.518 501.692C279.042 501.022 280.582 500.367 282.138 499.726M4.4029 873.859L282.138 499.726M294.034 495.722L293.868 495.251M294.034 495.722C294.034 495.722 294.034 495.722 294.034 495.722L293.868 495.251M294.034 495.722C293.243 496.002 292.455 496.284 291.671 496.57L291.5 496.1M293.868 495.251C293.075 495.531 292.286 495.814 291.5 496.1M291.5 496.1C289.919 496.676 288.352 497.264 286.8 497.865L286.98 498.331C285.415 498.937 283.864 499.555 282.329 500.188L282.138 499.726M291.5 496.1L282.138 499.726" stroke="white" stroke-dasharray="5 5"/>
</svg>
