<svg width="20" height="22" viewBox="0 0 20 22" fill="none" xmlns="http://www.w3.org/2000/svg">
<path d="M18.9566 8.86915C18.9566 8.86915 17.8396 9.89534 15.9408 11.1048C15.4196 8.13617 13.9676 4.47123 11.138 0C11.138 0 10.2072 4.80107 7.11706 9.30895C5.77674 7.25658 5.18104 5.64401 5.18104 5.64401C-4.49905 15.2095 3.54287 21.9896 8.60631 21.9896C15.0845 21.9896 20.7809 18.9111 18.9566 8.86915Z" fill="#FF9D33"/>
<path d="M15.1218 17.3718C15.6803 16.1623 16.0898 14.5864 16.1643 12.6073C16.1643 12.6073 15.3824 13.267 14.0421 14.11C13.6698 12.1309 12.6646 9.71204 10.6913 6.70679C10.6913 6.70679 10.0584 9.89528 7.89898 12.9372C6.9682 11.5812 6.55866 10.4817 6.55866 10.4817C4.95772 12.9738 4.32479 14.9529 4.28756 16.5288C3.39402 16.199 2.83555 15.9424 2.83555 15.9424C4.36202 20.4137 7.52667 21.4032 8.94146 21.4032C11.4732 21.4032 14.0421 20.6702 16.5738 17.1152C16.5738 17.0786 16.0154 17.2252 15.1218 17.3718Z" fill="#FFCE31"/>
<path d="M5.88846 15.356C5.88846 15.356 6.93094 16.7486 7.71279 16.4188C7.71279 16.4188 9.20203 14.1099 11.3614 12.8271C11.3614 12.8271 10.9147 16.3455 11.4359 16.9685C12.1061 17.8115 13.9304 16.0523 13.9304 16.0523C13.9304 18.1413 11.6221 20.7434 9.53711 20.7434C7.52663 20.7434 4.6226 18.4712 5.88846 15.356Z" fill="#FFDF85"/>
<path d="M16.2759 5.90058C17.0578 4.8011 17.579 3.62831 17.579 3.62831C18.8821 5.75398 18.1003 7.03671 17.5418 7.43985C16.7599 8.02624 15.3824 7.18331 16.2759 5.90058ZM2.05365 5.53408C1.2718 4.25135 1.19734 2.63878 1.19734 2.63878C-0.664221 5.38749 0.0431707 6.92676 0.6761 7.36655C1.49518 7.98959 2.90997 7.03671 2.05365 5.53408ZM6.37246 2.67543C6.48416 1.79585 6.11184 0.91626 6.11184 0.91626C7.86171 2.05239 7.86171 3.00528 7.63832 3.40842C7.30324 3.88486 6.26077 3.66496 6.37246 2.67543Z" fill="#FF9D33"/>
</svg>
